<?xml version="1.0" standalone="no"?>
<!DOCTYPE svg PUBLIC "-//W3C//DTD SVG 20010904//EN"
 "http://www.w3.org/TR/2001/REC-SVG-20010904/DTD/svg10.dtd">
<svg version="1.0" xmlns="http://www.w3.org/2000/svg"
 width="1080.000000pt" height="608.000000pt" viewBox="0 0 1080.000000 608.000000"
 preserveAspectRatio="xMidYMid meet">

<g transform="translate(0.000000,608.000000) scale(0.100000,-0.100000)"
fill="#000000" stroke="none">
<path d="M0 3040 l0 -3040 1065 0 c940 0 1065 2 1065 15 0 8 7 15 15 15 9 0
12 -6 9 -15 -5 -12 3 -15 40 -15 27 0 46 5 46 11 0 8 4 8 13 1 14 -12 47 7 47
28 0 7 7 10 15 6 8 -3 29 9 50 28 19 18 37 31 40 28 3 -3 5 2 5 11 0 19 11 22
26 7 14 -14 46 -1 40 16 -3 8 6 21 19 30 14 9 22 20 19 25 -3 5 2 12 10 15 9
3 13 10 10 15 -3 5 5 10 18 10 17 1 18 3 5 6 -22 6 -22 23 -1 23 14 0 15 2 3
17 -12 15 -12 16 4 10 10 -4 28 0 43 9 23 15 33 35 17 33 -23 -4 -30 4 -29 31
1 23 6 30 22 30 31 0 36 11 14 30 -13 12 -18 24 -13 36 5 14 3 16 -11 11 -10
-4 -25 -7 -33 -7 -12 0 -13 -3 -4 -14 16 -19 -1 -28 -30 -18 -14 6 -18 11 -11
16 6 4 8 14 5 22 -5 13 -1 15 18 9 13 -4 21 -4 17 0 -4 4 0 15 9 24 15 15 15
16 0 19 -24 5 -21 22 4 22 11 0 18 4 14 9 -3 5 3 16 13 23 10 7 30 34 45 60
23 42 24 47 9 53 -16 6 -16 7 1 19 21 16 22 30 1 47 -12 10 -20 10 -34 1 -11
-7 -21 -8 -25 -2 -3 5 2 13 11 18 10 6 14 14 9 22 -9 15 -15 87 -9 111 3 11
11 15 24 12 11 -3 20 0 20 6 0 6 -7 11 -16 11 -11 0 -14 6 -9 20 4 14 2 20 -9
20 -13 0 -27 -36 -31 -85 -1 -12 -10 -21 -23 -23 -19 -3 -20 -6 -11 -24 10
-19 9 -20 -15 -14 -30 7 -34 -1 -8 -20 15 -12 14 -13 -11 -14 -16 0 -26 4 -23
9 9 13 -25 23 -39 11 -6 -5 -15 -7 -18 -3 -4 3 -7 0 -7 -7 0 -11 -4 -10 -17 3
-22 22 -27 77 -7 77 8 0 14 4 14 9 0 5 10 13 23 17 21 7 21 7 2 15 -31 12 -36
10 -33 -8 2 -12 -3 -18 -14 -17 -10 1 -18 -2 -18 -7 0 -5 -4 -9 -10 -9 -5 0
-10 11 -10 26 0 19 -8 28 -34 39 -19 8 -44 27 -55 42 l-22 27 28 12 c19 8 22
13 10 13 -9 1 -25 -4 -36 -10 -25 -16 -55 0 -35 19 8 8 14 9 14 2 0 -6 10 -4
24 5 16 11 26 13 31 6 3 -6 11 -11 17 -11 7 0 6 5 -1 14 -10 12 -5 16 26 26
21 7 49 19 62 27 17 11 26 12 34 4 10 -10 -1 -16 -25 -13 -15 2 -32 -32 -34
-68 -3 -47 -11 -63 -30 -56 -8 3 -14 -1 -14 -9 0 -23 16 -26 35 -5 10 11 29
20 42 20 12 0 23 5 23 10 0 6 5 10 10 10 6 0 10 -6 10 -13 0 -7 9 -18 20 -25
11 -7 20 -8 20 -3 0 5 -5 11 -11 13 -5 2 -11 12 -13 23 -2 11 -11 22 -22 23
-32 6 -40 22 -12 22 15 0 30 5 33 10 4 6 -7 10 -24 10 -17 0 -31 4 -31 10 0 5
25 9 56 9 47 -1 57 -4 64 -23 6 -15 9 -17 9 -4 1 11 7 15 20 11 10 -3 22 0 25
6 4 6 0 11 -11 11 -13 0 -14 3 -5 8 7 5 26 6 43 4 27 -4 29 -6 15 -21 -12 -13
-13 -20 -4 -29 9 -9 7 -12 -12 -12 l-24 0 24 -23 c14 -12 28 -22 33 -22 4 0
12 -7 17 -15 8 -13 10 -12 10 3 0 9 5 17 12 17 6 0 9 -3 6 -6 -4 -3 0 -20 7
-38 11 -25 11 -36 3 -44 -7 -7 -8 -15 -3 -19 4 -5 10 -2 12 5 3 6 11 12 19 12
14 0 18 -21 14 -67 -1 -13 2 -23 7 -23 5 0 10 -14 11 -32 2 -17 7 -37 13 -44
6 -7 8 -18 4 -24 -4 -6 -2 -16 3 -23 5 -7 8 -58 7 -115 -1 -57 2 -105 6 -107
25 -16 -53 -85 -96 -85 -9 0 -18 -7 -21 -15 -4 -8 -12 -15 -20 -15 -8 0 -14
-4 -14 -10 0 -16 17 -12 56 15 20 14 40 23 42 20 13 -13 8 -51 -10 -69 -20
-22 -23 -36 -8 -36 6 0 10 -7 10 -15 0 -16 -16 -21 -22 -7 -1 5 -16 12 -33 16
-24 5 -26 4 -12 -4 16 -10 15 -15 -15 -57 -18 -24 -41 -49 -51 -55 -10 -5 -16
-15 -14 -22 6 -15 -44 -56 -68 -56 -20 0 -19 -17 3 -41 12 -12 25 -17 35 -13
12 4 17 1 17 -10 0 -9 6 -16 14 -16 15 0 32 35 27 58 -1 7 6 15 15 19 21 8 44
-21 44 -54 0 -25 15 -31 24 -10 5 10 7 10 12 0 3 -8 25 -13 54 -13 41 0 50 3
56 22 3 12 13 28 20 35 7 8 11 20 8 28 -4 8 -1 15 5 15 6 0 11 -4 11 -10 0 -5
7 -10 16 -10 14 0 14 -3 4 -15 -9 -10 -9 -15 -1 -15 6 0 11 -5 11 -12 0 -9 -3
-9 -12 0 -17 17 -38 15 -38 -3 0 -9 9 -15 25 -15 14 0 25 -4 25 -10 0 -5 7
-10 15 -10 9 0 15 9 15 25 0 14 5 25 10 25 6 0 10 7 10 15 0 8 4 15 8 15 8 0
11 16 15 95 1 17 8 34 15 38 10 6 10 12 2 22 -8 9 -6 14 6 19 12 4 15 15 12
36 -3 17 -1 30 4 30 4 0 8 7 8 15 0 7 7 18 16 23 9 5 15 13 14 18 -2 5 7 13
19 19 23 11 36 39 32 68 -1 10 4 17 14 17 9 0 15 -6 12 -12 -2 -7 4 -22 14
-34 10 -11 23 -44 29 -74 5 -29 15 -59 21 -66 6 -8 12 -39 12 -69 1 -38 5 -55
14 -55 7 0 13 -9 13 -20 0 -11 5 -20 11 -20 5 0 7 -5 3 -12 -5 -7 -11 -5 -21
7 -14 20 -18 9 -4 -13 5 -9 17 -11 35 -6 25 6 27 4 24 -17 -2 -13 5 -33 14
-43 10 -11 18 -26 18 -33 0 -11 663 -13 3750 -13 l3750 0 -1 3040 0 3040
-5399 0 -5400 0 0 -3040z m6676 2868 c-3 -46 -8 -92 -10 -103 -2 -11 -7 -47
-11 -80 -9 -79 -19 -87 -12 -10 3 33 8 87 11 120 9 101 18 155 23 155 3 0 3
-37 -1 -82z m-36 -354 c-6 -49 -13 -111 -16 -139 -3 -27 -7 -68 -9 -90 -1 -22
-6 -62 -10 -89 -6 -39 -5 -48 6 -44 25 9 49 -11 49 -42 l0 -29 -37 16 c-21 8
-39 16 -40 17 -2 2 1 27 6 57 5 30 13 92 16 139 4 46 8 87 10 90 2 3 7 48 10
100 7 90 12 116 21 108 2 -3 -1 -44 -6 -94z m16 -445 c7 -12 -12 -29 -33 -29
-7 0 -13 9 -13 20 0 22 34 28 46 9z m-281 -9 c3 -5 -1 -10 -9 -10 -9 0 -16 5
-16 10 0 6 4 10 9 10 6 0 13 -4 16 -10z m35 -60 c0 -11 -4 -20 -10 -20 -5 0
-10 9 -10 20 0 11 5 20 10 20 6 0 10 -9 10 -20z m-250 -15 c10 -12 10 -15 -3
-15 -8 0 -17 7 -21 15 -3 8 -2 15 3 15 5 0 14 -7 21 -15z m607 9 c-3 -3 -12
-4 -19 -1 -8 3 -5 6 6 6 11 1 17 -2 13 -5z m-831 -21 c25 -26 66 -44 82 -38
26 10 60 -6 65 -31 2 -13 0 -24 -4 -24 -5 0 -9 -4 -9 -9 0 -9 102 -7 119 3 6
4 20 0 32 -8 17 -11 27 -12 45 -4 27 13 32 28 9 28 -8 0 -15 5 -15 11 0 6 7 9
15 5 8 -3 15 -2 15 2 0 14 -24 32 -42 32 -10 0 -18 4 -18 8 0 5 -15 7 -32 5
-31 -3 -32 -2 -10 8 16 9 29 9 45 2 12 -6 41 -19 65 -29 24 -10 49 -25 55 -33
13 -18 74 -25 91 -12 6 5 35 12 65 16 45 6 62 3 102 -15 27 -13 46 -27 43 -32
-3 -4 -11 -5 -17 -2 -9 5 -9 4 0 -6 9 -10 21 -10 59 -1 38 10 49 10 55 -1 5
-7 7 -19 4 -25 -6 -16 7 -17 23 -1 9 9 12 9 12 0 0 -6 10 -16 22 -23 18 -10
20 -9 15 4 -4 10 1 18 14 22 10 4 19 15 19 26 0 30 35 24 36 -6 1 -14 -3 -25
-8 -25 -6 0 -8 -9 -5 -21 5 -20 5 -20 -13 -4 -12 11 -20 13 -25 6 -3 -6 1 -14
9 -17 12 -5 13 -10 5 -27 -11 -20 -12 -20 -25 4 l-13 24 -1 -27 c0 -16 5 -28
10 -28 6 0 10 -4 10 -10 0 -11 -49 -8 -68 4 -9 5 -9 13 -2 27 11 20 -3 28 -15
9 -4 -7 -13 -7 -26 0 -15 9 -21 7 -26 -7 -10 -30 -24 -42 -39 -36 -8 3 -14 11
-14 19 0 8 -5 14 -10 14 -7 0 -7 6 0 20 8 15 8 20 -1 20 -6 0 -1 9 12 20 l24
20 -26 -6 c-15 -3 -30 -1 -33 5 -8 13 -36 3 -59 -21 -14 -14 -15 -18 -3 -18 8
0 22 7 31 16 21 21 30 12 13 -15 -8 -14 -19 -19 -32 -15 -11 4 -16 2 -12 -4 3
-5 0 -12 -8 -15 -20 -8 -37 43 -24 69 9 18 9 18 -6 0 -9 -11 -16 -25 -16 -32
0 -6 -7 -17 -15 -24 -9 -7 -13 -23 -11 -36 3 -14 1 -22 -5 -19 -5 4 -9 15 -9
26 0 11 -4 17 -10 14 -5 -3 -10 3 -10 15 0 12 5 18 10 15 6 -3 10 -1 10 4 0 6
-8 11 -17 11 -15 0 -16 2 -3 10 12 8 11 10 -8 10 -30 0 -92 -26 -92 -39 0 -22
-30 -10 -36 14 -9 36 -22 31 -20 -7 1 -25 -3 -32 -14 -30 -12 3 -13 1 -2 -9
18 -19 16 -69 -4 -69 -14 0 -14 -3 -4 -15 11 -13 10 -14 -4 -9 -21 8 -20 20 2
33 10 6 12 11 4 11 -7 0 -10 5 -7 11 4 5 -2 18 -13 28 -21 18 -18 34 8 44 13
4 12 6 -1 6 -19 1 -48 31 -30 31 6 0 11 5 11 10 0 17 -24 11 -55 -14 -27 -22
-28 -25 -11 -32 11 -4 22 -2 28 7 7 11 9 9 5 -8 -3 -13 1 -24 9 -27 21 -8 17
-26 -6 -26 -12 0 -33 -11 -47 -24 -14 -13 -31 -22 -38 -20 -7 3 -21 -3 -30
-13 -10 -10 -23 -18 -29 -18 -6 0 -10 -8 -10 -18 2 -14 -1 -15 -12 -6 -9 7
-14 8 -14 1 0 -6 -8 -9 -17 -8 -13 2 -19 14 -21 44 -2 25 1 42 7 42 6 0 11 17
11 38 0 31 -4 38 -21 39 -16 2 -20 -3 -16 -18 3 -11 1 -17 -5 -13 -6 4 -14 1
-18 -6 -5 -8 -9 -5 -13 9 -3 12 0 21 6 21 8 0 7 4 -1 12 -27 27 -10 106 24
114 28 7 24 18 -16 38 -28 14 -30 13 -30 -5 0 -10 -4 -19 -9 -19 -4 0 -12 -13
-17 -30 l-9 -30 -11 25 c-9 18 -9 24 0 22 6 -1 10 4 9 11 -2 6 1 12 6 12 5 0
12 14 16 30 8 34 16 37 41 13z m559 -3 c3 -5 1 -10 -4 -10 -6 0 -11 5 -11 10
0 6 2 10 4 10 3 0 8 -4 11 -10z m165 -10 c26 -16 3 -22 -27 -6 -23 13 -24 15
-8 15 11 1 27 -3 35 -9z m90 -21 c0 -5 -4 -9 -10 -9 -5 0 -10 7 -10 16 0 8 5
12 10 9 6 -3 10 -10 10 -16z m-152 -1 c-6 -18 -28 -21 -28 -4 0 9 7 16 16 16
9 0 14 -5 12 -12z m-103 -7 c-36 -14 -101 -23 -90 -13 11 11 45 19 85 20 22 1
23 0 5 -7z m-335 -11 c0 -5 -6 -10 -14 -10 -8 0 -18 5 -21 10 -3 6 3 10 14 10
12 0 21 -4 21 -10z m740 0 c0 -5 -4 -10 -9 -10 -6 0 -13 5 -16 10 -3 6 1 10 9
10 9 0 16 -4 16 -10z m30 -10 c0 -5 -4 -10 -10 -10 -5 0 -10 5 -10 10 0 6 5
10 10 10 6 0 10 -4 10 -10z m96 -38 c-5 -41 -3 -50 15 -66 16 -13 24 -15 29
-6 5 9 9 9 14 1 4 -6 2 -11 -3 -11 -6 0 -11 -5 -11 -11 0 -7 9 -9 23 -6 21 6
21 6 3 -8 -14 -11 -22 -12 -27 -4 -5 8 -8 8 -13 0 -17 -28 22 -42 44 -16 7 8
18 15 24 14 7 0 6 -2 -1 -6 -23 -9 -14 -25 11 -21 25 5 55 -6 45 -17 -4 -3
-19 -7 -35 -9 -16 -2 -33 -6 -39 -8 -5 -1 -10 1 -10 5 0 4 -14 15 -30 23 -18
8 -36 28 -43 46 -9 25 -14 30 -24 20 -20 -20 -33 -14 -14 7 9 10 19 41 23 70
3 28 10 51 16 51 6 0 7 -19 3 -48z m-281 20 c-2 -3 -18 -6 -35 -7 -22 -1 -27
1 -20 10 6 7 22 10 35 7 14 -2 23 -7 20 -10z m335 -22 c0 -5 -4 -10 -10 -10
-5 0 -10 5 -10 10 0 6 5 10 10 10 6 0 10 -4 10 -10z m-143 -16 c-3 -3 -12 -4
-19 -1 -8 3 -5 6 6 6 11 1 17 -2 13 -5z m-1042 -24 c3 -5 2 -10 -4 -10 -5 0
-13 5 -16 10 -3 6 -2 10 4 10 5 0 13 -4 16 -10z m1059 -9 c16 -17 16 -19 -4
-24 -16 -4 -20 -2 -16 9 3 8 -1 14 -10 14 -8 0 -12 5 -9 10 9 15 20 12 39 -9z
m-540 -20 c3 -5 -1 -11 -9 -14 -9 -4 -12 -1 -8 9 6 16 10 17 17 5z m727 -10
c-8 -5 -20 -7 -28 -4 -21 8 -15 13 15 13 20 0 23 -3 13 -9z m-716 -60 c3 -5 2
-12 -3 -15 -5 -3 -9 1 -9 9 0 17 3 19 12 6z m175 -6 c0 -8 -4 -15 -10 -15 -5
0 -7 7 -4 15 4 8 8 15 10 15 2 0 4 -7 4 -15z m-705 -5 c3 -6 -4 -10 -17 -10
-18 0 -20 2 -8 10 19 12 18 12 25 0z m655 -37 c-5 -20 -8 -39 -8 -42 2 -21 -5
-20 -22 2 -24 30 -25 41 -4 33 8 -3 12 -2 9 4 -6 10 14 39 26 40 4 0 3 -17 -1
-37z m-105 17 c3 -5 1 -10 -4 -10 -6 0 -11 5 -11 10 0 6 2 10 4 10 3 0 8 -4
11 -10z m458 -20 c-3 -11 0 -34 7 -51 12 -27 17 -30 49 -27 33 3 36 1 39 -25
2 -15 7 -25 12 -22 4 3 6 19 4 35 -4 25 -2 30 15 30 12 0 21 -4 21 -10 0 -5
12 -10 26 -10 14 0 23 4 19 10 -3 6 1 10 10 10 11 0 15 -7 13 -22 -2 -15 3
-24 15 -26 15 -3 18 0 13 16 -4 11 -2 23 3 26 15 10 24 -12 16 -41 -5 -23 -10
-25 -40 -20 -57 9 -44 -19 15 -33 57 -14 66 -30 18 -31 -27 -1 -29 -2 -11 -7
13 -4 32 -15 43 -24 21 -19 27 -48 10 -48 -16 0 -12 -30 5 -35 8 -3 23 -8 33
-12 9 -3 22 -5 27 -4 6 1 -3 -12 -20 -29 -24 -25 -27 -33 -16 -40 8 -5 24 -4
38 3 28 12 41 3 24 -17 -10 -12 -8 -17 8 -25 28 -15 41 -14 35 4 -4 9 0 15 9
15 8 0 18 6 20 13 3 6 6 3 7 -8 6 -75 16 -83 86 -61 55 17 89 15 43 -3 -74
-29 -84 -34 -67 -38 20 -5 35 -60 20 -75 -6 -6 -21 -11 -34 -12 -15 -1 -23 -7
-23 -20 0 -10 -10 -22 -21 -27 -24 -8 -38 -71 -20 -89 7 -7 -9 -10 -47 -10
-66 0 -108 -18 -144 -61 -20 -23 -27 -26 -38 -16 -7 6 -11 14 -9 16 3 3 -4 10
-15 16 -13 7 -17 15 -12 24 7 10 13 11 30 2 14 -8 21 -8 21 -1 0 5 -4 10 -10
10 -5 0 -10 14 -10 30 0 32 8 37 29 18 12 -11 13 -9 6 7 -4 11 -12 32 -17 48
-5 15 -14 27 -19 27 -5 0 -9 7 -9 15 0 8 -9 15 -20 15 -13 0 -20 -7 -20 -19 0
-11 -5 -23 -11 -27 -8 -4 -7 -9 2 -15 7 -4 10 -11 6 -16 -13 -12 -26 19 -16
38 5 10 9 20 9 23 0 10 -35 -7 -48 -23 -10 -14 -11 -13 -6 4 4 11 14 26 22 33
14 10 12 12 -10 12 -15 0 -29 -7 -32 -16 -6 -15 -8 -15 -25 0 -15 14 -21 15
-27 4 -5 -7 -7 -21 -6 -31 2 -10 -4 -30 -13 -44 -9 -14 -15 -34 -12 -44 3 -10
1 -20 -4 -20 -10 -2 -25 -5 -36 -9 -5 -1 -12 -2 -17 -1 -5 1 -6 -5 -3 -13 3
-8 -2 -24 -11 -34 -16 -18 -20 -19 -49 -6 -33 14 -41 28 -23 39 16 10 12 25
-5 19 -8 -4 -15 -15 -15 -25 0 -10 -7 -19 -15 -19 -8 0 -15 -7 -15 -15 0 -8 6
-15 13 -15 8 0 7 -4 -3 -10 -8 -5 -28 -10 -44 -10 -17 0 -47 -12 -67 -26 -24
-16 -51 -25 -77 -26 -35 0 -46 6 -80 41 -21 22 -46 41 -55 41 -17 0 -21 10
-18 43 1 9 -4 17 -13 17 -9 0 -16 5 -16 10 0 9 14 14 33 11 4 -1 3 7 -3 18
-15 28 -13 33 10 26 13 -4 20 -2 20 7 0 7 5 30 11 51 7 27 15 37 30 37 13 0
23 8 26 20 4 16 11 19 27 14 21 -6 21 -6 -1 18 -29 31 -29 36 2 30 26 -4 34
11 13 24 -7 4 -8 3 -4 -4 4 -7 2 -12 -4 -12 -23 0 -3 25 21 26 22 1 24 -2 22
-40 -1 -23 0 -33 3 -23 8 24 10 22 55 -25 22 -24 38 -36 37 -28 -2 8 -9 21
-15 28 -7 7 -13 20 -13 29 0 13 3 13 15 3 20 -17 37 -2 68 60 14 27 32 56 41
65 9 9 14 20 11 25 -3 4 2 10 9 13 8 3 17 1 20 -6 3 -7 3 -2 0 11 -4 18 -1 22
18 22 19 0 20 2 8 11 -11 8 -5 9 25 6 22 -3 34 -3 28 0 -7 2 -13 9 -13 14 0 6
4 8 10 4 5 -3 26 2 47 10 37 16 37 17 18 31 -12 9 -21 11 -23 4 -2 -5 -8 -10
-14 -10 -6 0 -8 7 -4 15 4 11 -2 15 -20 15 -13 0 -27 -7 -30 -15 -4 -8 -18
-15 -34 -15 -16 0 -30 -5 -32 -11 -2 -6 -27 -12 -56 -12 -41 -2 -53 -6 -58
-21 -3 -10 -1 -23 5 -29 15 -15 14 -27 -4 -27 -8 0 -15 -4 -15 -10 0 -5 -10
-9 -22 -7 -15 1 -26 -5 -33 -20 -5 -13 -15 -23 -22 -23 -7 0 -13 -4 -13 -10 0
-5 -7 -7 -15 -4 -8 4 -22 1 -30 -6 -8 -6 -19 -9 -24 -6 -5 4 -12 2 -16 -4 -3
-5 -12 -10 -18 -10 -8 0 -8 3 -2 8 6 4 11 13 13 20 2 10 -2 10 -18 2 -11 -6
-20 -17 -20 -24 0 -19 -57 -39 -64 -23 -3 7 -3 1 0 -12 5 -21 3 -23 -15 -18
-12 3 -19 1 -15 -4 3 -5 -12 -9 -33 -8 l-38 1 30 13 c17 8 35 14 41 15 7 0 14
6 17 14 4 9 14 12 26 9 14 -4 27 2 41 18 19 24 19 24 -2 42 -21 17 -36 53 -18
42 4 -3 13 2 19 9 10 12 9 14 -6 11 -10 -1 -24 2 -31 8 -10 8 -7 16 15 39 15
16 28 39 28 51 0 17 5 21 22 20 15 -2 24 4 28 19 6 16 9 18 17 7 7 -10 8 -8 5
9 -3 12 1 28 8 36 8 7 11 16 8 20 -4 3 3 6 14 6 11 0 23 3 26 6 9 10 106 16
133 10 14 -4 21 -11 18 -20 -3 -7 6 -26 20 -41 14 -15 26 -23 26 -18 0 6 -7
16 -15 23 -22 18 -19 27 12 33 20 4 37 -3 64 -25 24 -19 44 -28 54 -24 12 4
19 0 22 -14 6 -24 8 -24 32 -4 23 20 17 54 -10 49 -16 -3 -17 -1 -9 16 9 17 7
19 -17 20 -15 1 -31 1 -35 0 -5 0 -8 4 -8 10 0 5 -5 7 -11 4 -6 -4 -9 0 -7 11
2 11 -2 18 -8 17 -6 -1 -11 4 -11 12 0 7 6 11 13 8 7 -2 22 5 34 17 12 12 28
19 36 16 22 -8 17 2 -7 15 -17 9 -20 8 -14 -2 6 -9 3 -10 -10 -5 -10 4 -21 2
-25 -5 -6 -8 -9 -8 -14 0 -4 6 1 14 11 17 10 3 31 12 48 19 35 16 45 12 38
-15z m-1008 10 c-3 -5 -12 -10 -18 -10 -7 0 -6 4 3 10 19 12 23 12 15 0z m65
-10 c0 -13 -5 -18 -15 -14 -12 5 -13 10 -4 20 15 19 19 18 19 -6z m237 -12
c-3 -7 -5 -2 -5 12 0 14 2 19 5 13 2 -7 2 -19 0 -25z m386 6 c-3 -9 0 -19 6
-24 9 -5 7 -9 -7 -12 -16 -5 -20 -1 -17 13 4 21 14 39 20 39 3 0 2 -7 -2 -16z
m594 -13 c14 -7 13 -10 -6 -16 -12 -4 -28 -2 -36 5 -10 8 -19 5 -39 -17 -14
-15 -26 -26 -27 -23 0 3 -1 19 -2 37 l-2 32 48 -4 c27 -3 56 -9 64 -14z
m-1029 -16 c-3 -3 -9 2 -12 12 -6 14 -5 15 5 6 7 -7 10 -15 7 -18z m584 -12
c29 -46 30 -63 1 -74 -17 -6 -21 -5 -17 6 3 7 -3 22 -14 33 -13 13 -18 28 -15
46 7 35 16 33 45 -11z m-978 -3 c-6 -6 -10 -3 -10 10 0 13 4 16 10 10 7 -7 7
-13 0 -20z m206 15 c0 -2 -7 -5 -15 -9 -9 -3 -15 0 -15 9 0 9 6 12 15 9 8 -4
15 -7 15 -9z m-95 -13 c-3 -3 -11 0 -18 7 -9 10 -8 11 6 5 10 -3 15 -9 12 -12z
m230 8 c-3 -5 -1 -10 5 -10 6 0 8 -4 5 -10 -3 -5 -3 -10 2 -10 4 0 22 -12 38
-26 17 -14 24 -23 18 -19 -7 3 -13 1 -13 -4 0 -6 -8 -11 -17 -11 -15 0 -16 2
-3 10 12 7 12 12 2 22 -7 7 -20 13 -30 13 -11 0 -18 10 -20 28 -2 15 2 27 8
27 6 0 8 -4 5 -10z m1193 -31 c-3 -8 -7 -3 -11 10 -4 17 -3 21 5 13 5 -5 8
-16 6 -23z m-1572 1 c9 0 12 -5 9 -10 -4 -6 -11 -8 -16 -5 -5 4 -9 1 -9 -4 0
-6 -7 -11 -16 -11 -8 0 -13 -4 -10 -9 8 -13 -28 -20 -48 -9 -21 12 -21 32 1
24 10 -4 14 -4 10 0 -10 10 34 35 51 29 8 -3 20 -5 28 -5z m175 -20 c5 0 9 5
9 10 0 13 47 5 66 -11 15 -12 49 -5 40 9 -2 4 4 9 15 9 18 2 44 -29 33 -40 -3
-2 9 -9 25 -15 60 -21 95 -76 69 -109 -5 -7 -7 -17 -3 -23 3 -5 2 -10 -3 -10
-15 0 -22 54 -9 62 7 4 8 8 2 8 -22 0 -35 -17 -29 -35 5 -13 4 -16 -4 -11 -7
4 -12 1 -12 -9 0 -12 -6 -15 -21 -10 -15 5 -19 4 -14 -5 4 -6 16 -10 26 -7 10
3 22 1 25 -5 3 -5 13 -7 22 -3 15 5 56 -28 46 -38 -3 -3 4 -8 15 -12 12 -3 18
-12 15 -20 -4 -9 0 -12 14 -8 12 3 22 -2 26 -13 5 -14 4 -15 -8 -5 -12 10 -13
6 -6 -24 7 -30 5 -40 -11 -56 -10 -10 -25 -16 -34 -13 -11 5 -15 0 -13 -17 2
-19 -1 -23 -16 -21 -15 3 -18 -1 -13 -17 3 -12 0 -21 -5 -21 -6 0 -5 -6 2 -15
13 -16 3 -20 -18 -7 -7 5 -10 16 -6 25 7 18 -11 24 -21 7 -7 -11 19 -53 27
-44 3 3 9 1 12 -4 3 -6 -5 -17 -18 -26 -20 -12 -26 -13 -35 -2 -6 7 -8 16 -4
20 4 4 0 4 -10 0 -9 -3 -17 -10 -17 -15 0 -4 -8 -6 -17 -3 -14 5 -15 4 -4 -4
7 -5 11 -14 7 -20 -3 -6 -2 -13 4 -17 5 -3 10 -11 10 -17 0 -6 -8 -4 -18 5
-24 21 -32 21 -32 0 0 -15 -2 -14 -15 3 -16 21 -20 12 -6 -15 15 -27 -2 -46
-29 -31 -18 10 -21 10 -14 -2 4 -7 -2 -5 -14 5 -23 21 -37 17 -45 -13 -4 -15
-2 -19 6 -12 7 4 18 7 25 6 6 -1 17 -2 22 -3 6 0 10 -5 10 -10 0 -4 -11 -6
-25 -3 -16 3 -25 0 -25 -8 0 -8 12 -11 35 -8 19 2 31 0 27 -4 -4 -4 -26 -10
-48 -11 -21 -2 -51 -10 -66 -17 -19 -9 -31 -10 -40 -3 -15 12 -67 6 -85 -9 -9
-7 -13 -7 -13 0 0 10 29 26 41 24 18 -3 12 36 -8 55 -20 19 -27 17 -25 -8 1
-3 -20 -2 -46 2 -26 4 -55 3 -64 -2 -14 -8 -18 -6 -18 7 0 10 -3 14 -7 11 -3
-4 -15 7 -25 24 -13 22 -24 29 -36 24 -9 -3 -13 -3 -9 1 4 4 -2 17 -14 30 -22
23 -29 97 -15 159 3 17 9 45 12 63 4 18 12 32 20 32 8 0 14 5 14 11 0 6 7 17
15 26 8 8 13 18 10 23 -3 5 6 17 20 28 14 11 25 25 25 32 0 6 5 8 10 5 6 -3
10 -2 10 3 0 14 33 48 54 55 13 5 17 14 13 29 -4 15 -3 18 5 10 12 -12 54 6
92 41 11 9 31 17 44 17 15 0 26 7 29 20 5 17 7 17 20 5 8 -8 19 -15 24 -15z
m676 8 c2 -17 0 -19 -7 -8 -5 8 -6 18 -4 22 8 12 10 10 11 -14z m73 12 c-12
-8 -12 -10 5 -10 16 0 17 -2 6 -9 -22 -14 -44 -2 -30 15 6 8 17 14 23 14 6 0
4 -5 -4 -10z m610 -10 c0 -5 -5 -10 -11 -10 -5 0 -7 5 -4 10 3 6 8 10 11 10 2
0 4 -4 4 -10z m-885 -10 c-3 -5 -1 -10 5 -10 6 0 8 -5 5 -10 -4 -6 -11 -8 -16
-5 -12 8 -11 35 2 35 5 0 7 -4 4 -10z m52 -5 c0 -8 -6 -15 -14 -15 -14 0 -17
12 -6 23 11 11 20 8 20 -8z m50 -25 c1 -11 -2 -20 -7 -20 -6 0 -7 17 -1 38 3
8 7 -1 8 -18z m834 -5 c-1 -15 -24 -12 -29 3 -3 9 2 13 12 10 10 -1 17 -7 17
-13z m34 5 c3 -5 1 -10 -4 -10 -6 0 -11 5 -11 10 0 6 2 10 4 10 3 0 8 -4 11
-10z m-1680 -40 c3 -5 1 -10 -4 -10 -6 0 -11 5 -11 10 0 6 2 10 4 10 3 0 8 -4
11 -10z m1679 2 c2 -4 -4 -9 -15 -9 -10 -1 -19 2 -19 8 0 11 27 12 34 1z m-4
-48 c0 -8 -5 -12 -10 -9 -6 4 -8 11 -5 16 9 14 15 11 15 -7z m-1130 -23 c0 -3
3 -16 6 -28 5 -19 3 -22 -16 -18 -17 3 -20 1 -15 -13 5 -13 4 -14 -6 -5 -10
10 -9 17 5 32 17 19 17 19 -4 14 -20 -5 -21 -4 -9 15 11 18 39 20 39 3z m1050
-1 c0 -5 -4 -10 -10 -10 -5 0 -10 5 -10 10 0 6 5 10 10 10 6 0 10 -4 10 -10z
m-873 -6 c-3 -3 -12 -4 -19 -1 -8 3 -5 6 6 6 11 1 17 -2 13 -5z m473 -44 c-18
-14 -27 -15 -32 -7 -6 9 -8 9 -8 0 0 -7 -8 -13 -17 -13 -28 0 0 21 33 25 15 1
30 8 32 14 2 7 7 9 10 6 4 -4 -4 -15 -18 -25z m470 0 c0 -5 -5 -10 -11 -10 -5
0 -7 5 -4 10 3 6 8 10 11 10 2 0 4 -4 4 -10z m115 -1 c11 -17 -1 -21 -15 -4
-8 9 -8 15 -2 15 6 0 14 -5 17 -11z m-1212 -29 c3 -11 4 -20 3 -20 -1 0 -9 9
-19 20 -13 15 -14 20 -3 20 7 0 16 -9 19 -20z m554 -3 c4 -7 0 -8 -11 -4 -10
4 -22 7 -27 7 -5 0 -9 4 -9 9 0 12 38 2 47 -12z m-25 -15 c4 -4 -4 -9 -18 -10
-14 -1 -23 2 -19 8 3 6 -1 10 -10 10 -9 0 -13 -4 -10 -10 3 -5 -1 -10 -9 -10
-10 0 -13 6 -9 16 4 12 14 14 37 10 17 -4 34 -10 38 -14z m578 -21 c0 -19 -22
-23 -38 -7 -15 15 -14 16 11 16 15 0 27 -4 27 -9z m51 -1 c5 0 9 -5 9 -11 0
-15 -43 -7 -48 10 -3 10 0 12 12 8 10 -4 22 -7 27 -7z m-1014 -22 c2 -17 0
-19 -7 -8 -5 8 -6 18 -4 22 8 12 10 10 11 -14z m215 -110 c-8 -8 -9 -4 -5 13
4 13 8 18 11 10 2 -7 -1 -18 -6 -23z m-120 -43 c4 -20 3 -23 -8 -14 -16 13
-19 39 -5 39 5 0 11 -11 13 -25z m-265 -29 c0 -8 -6 -12 -12 -10 -6 3 -12 11
-12 18 0 8 6 12 12 10 6 -3 12 -11 12 -18z m54 17 c-16 -3 -20 -7 -12 -13 9
-5 7 -9 -8 -13 -12 -3 -19 0 -18 7 3 16 19 26 42 24 16 0 15 -2 -4 -5z m132
-96 c14 -21 13 -23 -5 -24 -13 -1 -18 3 -14 13 3 8 -1 14 -10 14 -8 0 -12 5
-9 10 10 16 22 12 38 -13z m-938 -7 c3 -5 -1 -10 -9 -10 -9 0 -16 5 -16 10 0
6 4 10 9 10 6 0 13 -4 16 -10z m2075 -71 c0 -4 -11 -6 -25 -5 -27 1 -48 36
-38 62 5 14 11 11 34 -17 16 -19 29 -37 29 -40z m-1225 41 c3 -5 1 -10 -4 -10
-6 0 -11 5 -11 10 0 6 2 10 4 10 3 0 8 -4 11 -10z m1125 -16 c-6 -6 -7 -14 -3
-17 3 -4 2 -7 -4 -7 -6 0 -13 9 -16 19 -3 14 0 19 14 18 12 -1 15 -5 9 -13z
m-1935 -24 c3 -6 -1 -7 -9 -4 -18 7 -21 14 -7 14 6 0 13 -4 16 -10z m810 -10
c-3 -5 -11 -10 -16 -10 -6 0 -7 5 -4 10 3 6 11 10 16 10 6 0 7 -4 4 -10z
m1167 -32 c-9 -9 -15 -9 -24 0 -10 10 -10 15 2 22 20 12 38 -6 22 -22z m-2012
12 c0 -5 -2 -10 -4 -10 -3 0 -8 5 -11 10 -3 6 -1 10 4 10 6 0 11 -4 11 -10z
m65 0 c3 -5 1 -10 -4 -10 -6 0 -11 5 -11 10 0 6 2 10 4 10 3 0 8 -4 11 -10z
m1900 -9 c3 -5 1 -12 -5 -16 -5 -3 -10 1 -10 9 0 18 6 21 15 7z m-115 -21 c0
-5 -7 -10 -15 -10 -8 0 -15 5 -15 10 0 6 7 10 15 10 8 0 15 -4 15 -10z m-1763
-15 c5 -4 3 -5 -4 -2 -6 4 -13 2 -15 -4 -2 -7 -9 -5 -17 5 -12 14 -11 16 7 13
12 -2 25 -7 29 -12z m428 -5 c13 -6 15 -9 5 -9 -8 0 -22 4 -30 9 -18 12 -2 12
25 0z m1473 -31 c2 -23 2 -23 -13 -5 -18 24 -20 39 -2 34 6 -3 13 -15 15 -29z
m-131 15 c-3 -4 0 -19 9 -35 8 -16 11 -29 7 -29 -4 0 -2 -5 5 -12 16 -16 15
-29 -2 -22 -15 6 -27 34 -29 69 -1 11 -8 19 -15 17 -8 -1 -11 2 -7 8 3 5 13
10 22 10 9 0 14 -3 10 -6z m-1074 -21 c-7 -2 -19 -2 -25 0 -7 3 -2 5 12 5 14
0 19 -2 13 -5z m856 -35 c14 -28 17 -46 11 -52 -15 -15 -48 22 -56 62 -10 48
19 42 45 -10z m-4702 -1 c12 -11 20 -24 17 -28 -3 -5 -1 -9 4 -9 5 0 12 -8 16
-17 3 -10 17 -33 30 -51 21 -27 22 -36 13 -57 -7 -13 -14 -20 -15 -15 -2 6 -8
8 -13 4 -5 -3 -9 0 -9 6 0 8 -6 7 -21 -1 -15 -7 -24 -8 -32 0 -7 7 -2 14 17
22 20 10 25 17 20 33 -6 19 -5 20 12 6 18 -14 18 -14 0 8 -21 24 -41 30 -33 9
10 -27 -49 -6 -66 23 -21 35 -21 44 -1 75 17 26 25 25 61 -8z m3245 4 c-8 -4
-15 -17 -17 -27 -2 -10 -4 -21 -5 -24 -1 -3 -6 6 -11 19 -5 13 -8 24 -7 25 2
1 12 6 23 12 22 13 37 8 17 -5z m272 10 c4 -5 -3 -7 -14 -4 -23 6 -26 13 -6
13 8 0 17 -4 20 -9z m1226 5 c0 -3 -4 -8 -10 -11 -5 -3 -10 -1 -10 4 0 6 5 11
10 11 6 0 10 -2 10 -4z m-1562 -30 c2 -28 -24 -42 -45 -25 -7 7 -16 9 -20 5
-3 -3 -1 -6 5 -6 7 0 12 -5 12 -11 0 -5 -4 -7 -10 -4 -5 3 -10 1 -10 -4 0 -6
-11 -11 -24 -11 -13 0 -26 -3 -29 -7 -2 -5 -2 -2 -1 5 2 6 -3 12 -11 12 -8 0
-15 -4 -15 -10 0 -5 -5 -10 -11 -10 -27 0 2 23 56 45 43 18 62 21 72 13 7 -6
14 -8 14 -4 1 3 3 11 4 16 1 6 3 12 4 15 3 12 7 3 9 -19z m242 -16 c0 -5 -4
-10 -10 -10 -5 0 -10 5 -10 10 0 6 5 10 10 10 6 0 10 -4 10 -10z m37 -15 c0
-8 -4 -12 -9 -9 -5 3 -6 10 -3 15 9 13 12 11 12 -6z m-113 -7 c-3 -5 -10 -6
-15 -2 -6 3 -5 -3 2 -14 7 -12 16 -19 20 -16 4 2 9 -3 13 -11 3 -8 12 -15 21
-15 21 0 19 -14 -7 -36 l-23 -19 19 23 c17 19 17 22 3 16 -12 -4 -17 -1 -17
11 0 9 -4 13 -10 10 -5 -3 -10 -1 -10 4 0 6 -6 11 -14 11 -8 0 -13 10 -13 24
0 18 5 24 18 23 9 -1 15 -5 13 -9z m1481 3 c3 -5 1 -12 -5 -16 -5 -3 -10 1
-10 9 0 18 6 21 15 7z m-1547 -22 c15 0 21 -3 15 -6 -7 -2 -13 -9 -13 -14 0
-4 6 -6 14 -3 8 3 17 1 21 -5 3 -6 -1 -11 -9 -11 -9 0 -16 -6 -17 -12 0 -9 -2
-9 -6 1 -8 20 -41 51 -55 51 -9 0 -8 4 2 10 10 6 16 6 18 0 2 -6 16 -10 30
-11z m316 -9 c-6 -6 -10 -2 -11 12 -2 16 1 18 10 9 7 -7 8 -14 1 -21z m1494
-7 c10 -10 27 -23 38 -29 16 -10 17 -14 6 -25 -11 -12 -15 -11 -23 4 -6 9 -17
17 -26 17 -9 0 -13 6 -9 15 3 9 0 15 -9 15 -7 0 -17 5 -20 10 -10 17 24 11 43
-7z m-2104 -8 c3 -8 0 -14 -7 -12 -7 1 -11 -4 -9 -10 1 -8 -9 -13 -28 -13 -18
0 -33 -6 -36 -15 -4 -8 -15 -15 -26 -15 -12 0 -17 -4 -12 -12 4 -6 3 -9 -2 -6
-13 8 -56 -10 -50 -21 3 -5 -2 -7 -13 -4 -11 3 -21 -2 -25 -12 -3 -9 -10 -13
-16 -10 -5 3 -10 1 -10 -5 0 -6 -6 -10 -14 -8 -8 2 -15 -1 -16 -7 -2 -18 -42
-26 -58 -13 -13 11 -14 10 -8 -8 6 -19 1 -23 -36 -32 -31 -8 -44 -8 -50 1 -8
14 0 29 13 22 5 -4 9 -2 9 4 0 13 162 91 181 87 4 0 16 7 27 18 12 10 27 16
34 14 7 -3 21 4 32 14 11 10 26 18 33 18 7 0 13 5 13 11 0 6 6 9 13 6 7 -3 21
1 32 9 23 17 22 17 29 -1z m46 -5 c-18 -12 -30 -13 -30 -2 0 4 10 9 22 9 18 2
20 0 8 -7z m170 -11 c0 -5 -4 -9 -8 -9 -5 0 -9 7 -9 15 0 8 4 12 9 9 4 -3 8
-9 8 -15z m1788 -1 c5 -25 -21 -23 -44 3 -19 21 -19 21 11 17 19 -2 31 -10 33
-20z m-1738 -18 c11 0 24 -8 29 -17 6 -10 11 -13 11 -6 0 7 7 10 15 7 14 -6
13 -8 -2 -19 -16 -12 -16 -13 7 -13 66 -1 79 -4 67 -16 -7 -6 -36 -12 -65 -13
-48 -3 -52 -1 -43 15 8 15 6 18 -9 17 -21 -1 -41 -15 -22 -15 7 0 12 -5 12
-11 0 -8 -5 -7 -15 1 -10 8 -13 21 -9 33 5 15 3 19 -9 14 -12 -5 -13 -1 -3 25
7 19 12 24 14 14 2 -9 12 -16 22 -16z m1584 21 c7 -11 -14 -20 -31 -13 -7 2
-13 8 -13 13 0 12 37 12 44 0z m-853 -24 c-10 -9 -11 -8 -5 6 3 10 9 15 12 12
3 -3 0 -11 -7 -18z m517 12 c-2 -6 -8 -10 -13 -10 -5 0 -11 4 -13 10 -2 6 4
11 13 11 9 0 15 -5 13 -11z m-1148 -20 c0 -14 -16 -11 -29 5 -10 12 -8 13 8 9
12 -3 21 -9 21 -14z m1400 11 c0 -5 -2 -10 -4 -10 -3 0 -8 5 -11 10 -3 6 -1
10 4 10 6 0 11 -4 11 -10z m-136 -16 c8 -21 8 -24 -3 -24 -5 0 -11 9 -14 20
-6 24 8 27 17 4z m326 1 c0 -8 -4 -15 -10 -15 -5 0 -10 7 -10 15 0 8 5 15 10
15 6 0 10 -7 10 -15z m-1035 -15 c3 -5 1 -10 -4 -10 -6 0 -11 5 -11 10 0 6 2
10 4 10 3 0 8 -4 11 -10z m1005 -3 c39 -32 53 -56 41 -71 -7 -8 -10 -21 -6
-28 4 -7 -4 1 -19 17 -14 17 -25 36 -26 44 0 7 -10 22 -22 32 -20 18 -20 19
-2 19 10 0 26 -6 34 -13z m-996 -26 c3 -4 3 -11 0 -14 -8 -7 -44 4 -44 14 0
12 37 12 44 0z m1086 -1 c0 -5 -12 -10 -26 -10 -14 0 -23 4 -19 10 3 6 15 10
26 10 10 0 19 -4 19 -10z m68 -15 c15 -14 21 -25 15 -25 -7 0 -15 5 -18 11 -4
6 -13 8 -21 5 -9 -3 -14 2 -14 14 0 26 5 25 38 -5z m-5045 -24 c-15 -14 -23
-17 -32 -8 -17 17 -13 27 12 36 32 13 45 -5 20 -28z m3407 24 c7 -9 8 -15 2
-15 -5 0 -12 7 -16 15 -3 8 -4 15 -2 15 2 0 9 -7 16 -15z m47 9 c-3 -3 -12 -4
-19 -1 -8 3 -5 6 6 6 11 1 17 -2 13 -5z m1278 -4 c3 -5 -1 -10 -9 -10 -9 0
-16 5 -16 10 0 6 4 10 9 10 6 0 13 -4 16 -10z m-817 -11 c-20 -11 -24 -30 -6
-26 7 1 14 -8 16 -20 2 -14 -2 -23 -10 -23 -10 0 -9 -3 2 -10 12 -8 12 -10 -2
-15 -31 -12 -115 71 -94 92 3 3 11 1 18 -5 9 -7 22 -6 43 3 36 16 57 19 33 4z
m815 -13 c30 -3 40 -10 43 -31 3 -20 -12 -19 -20 0 -8 22 -43 18 -56 -5 -15
-27 -34 -25 -48 5 -19 41 -15 48 21 40 17 -4 44 -8 60 -9z m-4608 -88 c23 -26
25 -58 4 -58 -5 0 -12 0 -16 0 -5 0 -8 6 -9 13 -2 23 -25 70 -31 63 -11 -10
-33 31 -27 49 6 14 10 13 31 -12 13 -15 35 -40 48 -55z m3390 64 c-3 -3 -11 0
-18 7 -9 10 -8 11 6 5 10 -3 15 -9 12 -12z m1048 -10 c25 -22 21 -37 -9 -40
-22 -2 -25 2 -21 18 3 11 0 18 -6 17 -6 -1 -13 6 -15 15 -4 21 21 15 51 -10z
m-1090 -16 c31 1 57 -1 57 -5 -1 -27 -70 -42 -96 -20 -13 11 -14 9 -8 -16 6
-25 5 -27 -12 -21 -33 13 -38 12 -42 -9 -5 -26 -21 -45 -37 -45 -12 0 -17 31
-6 40 19 16 29 48 18 59 -6 6 -7 11 -3 11 5 0 2 8 -5 17 -8 9 -9 14 -2 10 6
-4 22 -3 35 2 17 6 25 5 33 -8 8 -12 24 -16 68 -15z m-3447 15 c-4 -5 -1 -11
6 -13 14 -5 20 -38 7 -38 -6 0 -7 -20 -3 -49 4 -34 3 -51 -6 -56 -9 -5 -11 -4
-6 3 7 11 3 14 -26 16 -27 2 -41 56 -15 56 18 0 43 53 27 58 -8 3 -8 8 1 18
13 16 23 19 15 5z m3272 -16 c-3 -3 -9 2 -12 12 -6 14 -5 15 5 6 7 -7 10 -15
7 -18z m685 5 c3 -11 2 -20 -3 -20 -4 0 -10 9 -13 20 -3 11 -2 20 3 20 4 0 10
-9 13 -20z m917 0 c0 -5 -2 -10 -4 -10 -3 0 -8 5 -11 10 -3 6 -1 10 4 10 6 0
11 -4 11 -10z m-1696 -15 c-4 -8 -8 -15 -10 -15 -2 0 -4 7 -4 15 0 8 4 15 10
15 5 0 7 -7 4 -15z m356 -4 c0 -6 15 -7 34 -4 25 4 35 1 40 -12 3 -9 3 -21 0
-26 -3 -6 6 -7 23 -4 19 5 24 4 14 -3 -15 -11 2 -27 18 -18 14 9 41 -4 41 -19
0 -8 9 -17 21 -20 12 -4 18 -12 15 -21 -6 -16 20 -33 44 -27 17 4 37 -24 25
-35 -3 -3 -5 0 -5 6 0 15 -39 15 -60 2 -11 -8 -8 -9 12 -4 19 4 33 1 44 -10
19 -20 17 -23 -19 -30 -27 -5 -39 9 -14 17 7 2 6 3 -3 3 -28 -2 -16 -31 13
-32 32 -1 49 -13 21 -15 -10 -1 -23 0 -29 1 -5 1 -21 4 -35 7 -24 4 -25 4 -5
-12 l20 -16 -20 3 c-13 2 -20 11 -21 26 -1 12 -4 25 -8 29 -3 3 -1 12 5 19 9
11 7 15 -5 20 -13 5 -14 9 -5 20 9 11 8 14 -5 14 -10 0 -14 5 -11 10 3 6 1 10
-6 10 -6 0 -9 -8 -6 -20 6 -22 -30 -70 -52 -70 -8 0 -11 -3 -7 -7 4 -5 12 -8
17 -8 5 0 8 -4 7 -10 -2 -5 -6 -9 -10 -8 -4 2 -5 -4 -2 -12 4 -8 12 -15 19
-15 7 0 15 -6 18 -12 2 -7 4 -1 4 14 0 15 -5 33 -13 39 -10 8 -11 14 -1 24 7
7 16 10 21 7 5 -3 6 0 2 6 -5 8 1 12 15 12 21 0 21 -1 6 -18 -19 -21 -23 -47
-5 -36 8 5 9 2 5 -9 -3 -10 -2 -17 2 -17 5 0 18 -16 30 -35 20 -35 17 -46 -8
-22 -10 8 -12 8 -7 0 8 -15 -33 -14 -53 1 -12 9 -13 8 -7 -3 7 -10 3 -12 -15
-6 -13 4 -28 11 -33 16 -16 15 -39 10 -32 -6 3 -9 0 -15 -10 -15 -11 0 -12 4
-4 19 5 11 13 21 17 23 5 3 2 3 -4 2 -7 -2 -13 4 -13 12 0 12 7 15 25 12 17
-4 25 -1 25 8 0 8 -5 14 -11 14 -6 0 -9 9 -6 20 7 28 -4 24 -33 -10 -28 -35
-55 -40 -45 -10 4 13 2 20 -7 20 -10 0 -9 3 2 11 13 9 12 10 -2 5 -14 -4 -18
0 -18 19 0 14 5 25 11 25 5 0 7 5 4 11 -4 6 -14 8 -22 5 -8 -3 -12 -2 -10 2 3
4 0 12 -7 17 -16 14 -39 18 -31 5 3 -5 -2 -11 -12 -11 -17 -1 -17 -1 0 -6 29
-7 14 -27 -26 -34 -43 -7 -53 7 -23 34 12 10 14 16 6 12 -8 -4 -5 2 6 12 18
16 19 22 9 36 -6 9 -14 14 -17 11 -4 -3 -9 -1 -13 5 -3 6 1 11 10 11 8 0 18
-6 21 -14 3 -8 13 -12 24 -9 10 3 20 0 24 -5 8 -14 54 -2 61 15 5 13 3 14 -10
3 -13 -11 -20 -11 -40 0 -27 15 -23 34 6 27 25 -7 70 15 64 31 -2 6 0 12 5 12
6 0 10 -4 10 -9z m-1035 -11 c-3 -5 -2 -10 3 -10 5 0 9 -7 9 -15 0 -8 -3 -12
-7 -10 -3 2 -19 -4 -34 -14 -15 -10 -36 -16 -47 -14 -10 3 -19 0 -19 -6 0 -6
-9 -11 -21 -11 -14 0 -19 -5 -16 -14 4 -11 -2 -14 -29 -11 -29 3 -34 0 -29
-12 4 -12 2 -13 -8 -5 -10 9 -18 8 -33 -4 -18 -14 -18 -15 6 -9 25 5 25 5 2
-7 -25 -12 -42 -4 -25 13 6 6 9 18 6 26 -5 12 -1 14 15 8 14 -4 22 -2 22 5 0
7 7 10 15 6 9 -3 15 0 15 9 0 8 5 15 11 15 6 0 9 -7 6 -15 -4 -8 -2 -17 3 -20
6 -4 10 3 10 15 0 12 4 19 9 16 5 -3 11 3 14 14 4 15 14 20 37 20 17 0 29 4
25 10 -3 5 9 14 27 19 18 5 34 10 36 10 2 1 0 -3 -3 -9z m1155 -4 c0 -11 -19
-15 -25 -6 -3 5 1 10 9 10 9 0 16 -2 16 -4z m70 -12 c0 -2 -11 -4 -25 -4 -14
0 -25 4 -25 9 0 4 11 6 25 3 14 -2 25 -6 25 -8z m1169 2 c9 -10 9 -16 1 -21
-6 -4 -8 -20 -4 -41 8 -44 1 -43 -27 4 -13 20 -29 41 -37 46 -12 7 -12 10 -1
17 21 13 55 11 68 -5z m-1132 -11 c0 -8 -4 -15 -9 -15 -4 0 -8 7 -8 15 0 8 4
15 8 15 5 0 9 -7 9 -15z m838 -9 c8 -7 11 -16 8 -20 -11 -10 -55 -7 -48 4 3 6
-4 11 -17 11 -18 1 -19 2 -4 6 10 3 23 0 29 -6 17 -17 31 -13 17 4 -16 19 -3
20 15 1z m-875 -1 c0 -7 -30 -13 -34 -7 -3 4 4 9 15 9 10 1 19 0 19 -2z m161
-18 c-10 -9 -11 -8 -5 6 3 10 9 15 12 12 3 -3 0 -11 -7 -18z m-667 -18 c-8
-13 -24 -1 -24 18 0 13 3 13 15 3 8 -7 12 -16 9 -21z m545 7 c9 -11 7 -15 -8
-19 -17 -4 -20 4 -12 31 2 5 9 1 20 -12z m1256 4 c3 -5 -1 -10 -9 -10 -9 0
-16 5 -16 10 0 6 4 10 9 10 6 0 13 -4 16 -10z m-290 -10 c3 -5 1 -10 -4 -10
-6 0 -11 5 -11 10 0 6 2 10 4 10 3 0 8 -4 11 -10z m111 -22 c31 -30 32 -52 2
-43 -33 10 -50 29 -42 48 8 22 11 21 40 -5z m-1573 5 c-7 -2 -13 -11 -13 -19
0 -9 -4 -13 -10 -9 -14 9 0 35 19 34 10 0 11 -2 4 -6z m614 1 c-3 -3 -12 -4
-19 -1 -8 3 -5 6 6 6 11 1 17 -2 13 -5z m533 -136 c0 -5 -4 -8 -9 -8 -15 0
-31 59 -30 109 l0 46 19 -70 c11 -38 20 -73 20 -77z m-580 120 c0 -4 -4 -8
-10 -8 -16 0 -12 -15 10 -40 11 -13 20 -30 19 -39 0 -12 -3 -11 -9 4 -5 11 -9
16 -10 10 0 -5 -8 5 -17 23 -11 24 -20 31 -34 27 -13 -5 -17 -1 -16 13 1 16 8
20 34 19 18 -1 33 -5 33 -9z m-3740 -15 c0 -10 -4 -22 -8 -28 -9 -12 -52 -19
-52 -8 0 9 42 52 53 52 4 1 7 -7 7 -16z m2147 -17 c-2 -28 -5 -32 -19 -25 -24
13 -31 11 -25 -5 4 -11 -2 -14 -28 -13 -32 2 -33 3 -15 20 11 9 26 17 35 17 8
0 15 4 15 10 0 5 7 7 15 3 9 -3 15 -2 14 3 -2 13 0 24 5 24 3 0 4 -15 3 -34z
m1624 21 c-6 -8 -8 -17 -4 -20 3 -4 2 -7 -4 -7 -17 0 -22 12 -10 26 16 17 33
18 18 1z m74 -6 c-3 -6 -11 -8 -17 -5 -6 4 -5 9 3 15 16 10 23 4 14 -10z
m-485 -11 c0 -5 -2 -10 -4 -10 -3 0 -8 5 -11 10 -3 6 -1 10 4 10 6 0 11 -4 11
-10z m1120 1 c0 -5 -7 -12 -16 -15 -22 -9 -24 -8 -24 9 0 8 9 15 20 15 11 0
20 -4 20 -9z m-4560 -51 c-15 -28 -17 -25 -12 16 4 29 7 33 14 21 5 -11 5 -24
-2 -37z m2110 10 c-9 -17 -8 -20 11 -20 33 0 18 -9 -24 -14 -39 -5 -51 8 -18
19 11 3 22 12 25 20 3 8 8 15 11 15 3 0 1 -9 -5 -20z m1197 14 c-3 -3 -12 -4
-19 -1 -8 3 -5 6 6 6 11 1 17 -2 13 -5z m156 -31 c4 -20 4 -40 1 -44 -7 -12
-32 1 -37 19 -3 12 -5 10 -6 -5 -1 -14 5 -24 14 -24 8 -1 21 -2 28 -3 6 -1 16
-7 20 -14 6 -8 13 -9 26 -2 15 7 20 5 24 -10 5 -21 -38 -64 -54 -54 -5 3 -9
-1 -9 -8 0 -14 -55 -17 -68 -3 -4 5 -1 5 7 0 10 -6 12 -4 6 4 -4 7 -16 10 -27
8 -16 -5 -17 -3 -7 9 14 17 40 15 55 -5 10 -13 14 -13 28 1 23 23 21 25 -21
25 -23 0 -37 4 -36 11 2 6 -4 9 -12 6 -9 -4 -15 0 -15 10 0 9 5 16 11 16 8 0
8 5 -1 15 -10 12 -10 15 1 16 10 0 11 2 1 6 -6 2 -10 9 -6 14 3 5 -7 4 -23 -1
-24 -9 -26 -8 -11 3 10 8 15 17 11 20 -3 4 5 7 20 7 14 0 29 5 32 10 3 6 14
10 24 10 13 0 20 -10 24 -37z m-1494 11 c31 -6 41 -12 41 -26 0 -15 -81 -3
-91 14 -14 21 -10 31 9 23 9 -4 28 -9 41 -11z m1341 -9 c-6 -8 -18 -11 -26 -8
-22 8 -17 18 11 19 20 2 23 -1 15 -11z m1620 5 c0 -5 -9 -10 -20 -10 -11 0
-20 5 -20 10 0 6 9 10 20 10 11 0 20 -4 20 -10z m-3026 -18 c3 -5 -1 -9 -9 -9
-8 0 -15 4 -15 9 0 4 4 8 9 8 6 0 12 -4 15 -8z m-2244 -6 c0 -11 -19 -15 -25
-6 -3 5 1 10 9 10 9 0 16 -2 16 -4z m5310 -17 c0 -5 -7 -9 -15 -9 -15 0 -20
12 -9 23 8 8 24 -1 24 -14z m-4855 -14 c22 -4 58 -10 80 -13 28 -5 43 -14 50
-29 6 -14 30 -30 67 -44 32 -12 61 -26 64 -30 3 -5 18 -9 35 -9 16 0 29 -4 29
-9 0 -11 98 -29 199 -35 57 -4 97 -12 124 -26 27 -14 59 -21 99 -21 48 -1 58
-3 54 -15 -3 -8 -2 -12 3 -9 5 3 13 0 16 -6 12 -19 -4 -22 -29 -5 -31 20 -36
20 -36 1 0 -8 9 -15 19 -15 27 0 51 -10 51 -21 0 -6 -7 -6 -18 0 -10 5 -44 7
-75 4 -53 -5 -56 -7 -62 -37 -18 -89 -36 -123 -81 -155 -24 -18 -54 -46 -66
-62 -12 -16 -27 -29 -34 -29 -6 0 -17 -7 -24 -15 -7 -8 -21 -15 -33 -15 -23 0
-80 -33 -117 -68 -14 -13 -41 -32 -61 -42 -53 -28 -149 -131 -181 -195 -21
-41 -26 -74 -38 -267 -10 -146 -10 -172 5 -215 22 -67 75 -143 100 -143 55 -1
55 -48 0 -113 -18 -21 -35 -50 -38 -65 -3 -15 -19 -44 -35 -65 -38 -48 -53
-127 -26 -142 36 -21 64 -55 64 -80 0 -14 -4 -25 -9 -25 -5 0 -9 -14 -9 -30 1
-17 -3 -34 -7 -38 -4 -4 -5 3 -2 16 3 12 1 22 -5 22 -5 0 -7 4 -3 9 7 13 -14
59 -31 65 -17 7 -18 -6 -2 -22 6 -6 8 -15 3 -19 -4 -5 -10 -2 -12 5 -8 20 -22
14 -16 -8 4 -14 0 -20 -11 -20 -18 0 -19 -2 -10 -24 5 -12 10 -14 19 -6 8 7
12 5 12 -6 0 -17 -43 -42 -53 -31 -4 4 -1 14 7 24 9 11 10 14 2 9 -8 -4 -13
-2 -13 8 0 21 -18 30 -35 16 -12 -10 -11 -15 8 -30 28 -23 16 -38 -43 -51 -32
-7 -49 -6 -73 6 -17 8 -27 12 -24 8 7 -6 -56 -28 -113 -39 -21 -4 -22 -3 -5 4
20 9 21 12 24 53 0 11 6 17 11 14 6 -4 16 -2 23 3 19 16 62 19 59 4 -3 -18 15
-15 22 5 11 28 -7 33 -59 17 -53 -16 -336 -28 -345 -14 -3 4 -19 11 -36 14
-39 9 -50 -11 -33 -61 6 -19 9 -37 6 -40 -10 -10 -38 59 -31 75 14 32 12 42
-7 42 -32 0 -34 -4 -31 -41 2 -20 -1 -40 -7 -44 -6 -3 -9 -10 -6 -15 3 -4 -2
-14 -11 -21 -14 -11 -16 -10 -12 11 2 16 -2 24 -9 22 -16 -3 -17 10 -1 26 7 7
8 12 3 12 -4 0 0 9 9 19 10 10 13 22 8 25 -5 3 -15 -6 -22 -19 -7 -14 -16 -25
-20 -25 -8 0 -5 43 4 58 4 7 2 12 -6 12 -10 0 -9 3 2 10 12 7 11 10 -5 16 -48
18 -157 97 -175 127 l-21 32 36 31 c19 17 35 36 35 42 0 6 11 19 24 29 59 46
84 248 34 274 -32 17 -68 52 -68 65 0 8 7 29 16 48 16 33 16 35 -6 66 -29 41
-85 175 -105 249 -8 31 -14 84 -14 117 1 32 -5 81 -11 107 -11 40 -18 50 -47
62 -19 8 -63 14 -96 14 -34 -1 -73 4 -87 11 -28 13 -137 174 -151 223 -26 92
13 169 133 262 14 11 59 52 100 90 102 96 212 138 348 132 l65 -2 -2 -35 c-1
-19 0 -27 3 -17 6 18 54 25 54 7 0 -13 71 -45 94 -42 10 2 39 13 65 24 58 26
278 43 327 26 29 -10 39 -7 105 29 41 23 79 38 84 33 6 -4 28 -11 50 -15z
m1735 21 c0 -2 -7 -6 -15 -10 -8 -3 -15 -1 -15 4 0 6 7 10 15 10 8 0 15 -2 15
-4z m95 -18 c16 -7 24 -17 20 -26 -3 -7 -5 -18 -5 -23 0 -20 -48 -8 -64 16
-20 30 -20 32 2 38 9 3 18 5 19 6 1 0 14 -4 28 -11z m2732 6 c-3 -3 -12 -4
-19 -1 -8 3 -5 6 6 6 11 1 17 -2 13 -5z m-2667 -14 c0 -5 -5 -10 -11 -10 -5 0
-7 5 -4 10 3 6 8 10 11 10 2 0 4 -4 4 -10z m1365 0 c3 -5 -1 -10 -9 -10 -9 0
-16 5 -16 10 0 6 4 10 9 10 6 0 13 -4 16 -10z m1445 0 c0 -5 -4 -10 -10 -10
-5 0 -10 5 -10 10 0 6 5 10 10 10 6 0 10 -4 10 -10z m-2950 -31 c0 -4 -7 -6
-15 -3 -8 4 -15 10 -15 15 0 4 7 6 15 3 8 -4 15 -10 15 -15z m1440 5 c0 -2 -7
-4 -15 -4 -8 0 -15 4 -15 10 0 5 7 7 15 4 8 -4 15 -8 15 -10z m1276 4 c4 -6 2
-14 -5 -16 -8 -3 -9 -8 -1 -17 6 -7 8 -20 4 -29 -13 -34 -107 -8 -111 31 -2
20 0 21 23 13 33 -13 68 -12 37 0 -31 13 -29 24 2 16 14 -4 25 -2 25 4 0 14
17 13 26 -2z m-722 -19 c-17 -7 -17 -8 4 -8 12 -1 23 -4 23 -8 6 -35 5 -53 -3
-53 -6 0 -7 7 -4 16 5 14 4 15 -8 5 -8 -7 -23 -11 -33 -8 -14 4 -13 5 5 6 13
1 22 7 22 17 0 12 -4 14 -12 6 -7 -5 -24 -13 -36 -17 -21 -6 -22 -5 -14 12 5
10 7 23 5 30 -2 7 8 13 24 15 36 5 52 -3 27 -13z m-1824 1 c0 -5 -4 -10 -10
-10 -5 0 -10 5 -10 10 0 6 5 10 10 10 6 0 10 -4 10 -10z m2278 -24 c0 -21 -5
-24 -29 -24 -35 1 -36 5 -6 33 26 26 35 24 35 -9z m-2550 6 c17 -17 57 -19 47
-1 -4 5 -2 9 4 9 17 0 21 -17 6 -30 -7 -6 -29 -13 -47 -16 -62 -7 -98 -16 -98
-24 0 -8 -152 -69 -235 -95 -55 -16 -131 -24 -277 -28 -57 -1 -98 -6 -98 -12
0 -5 -4 -4 -9 3 -5 9 0 22 16 38 33 34 72 58 80 50 3 -3 1 -6 -5 -6 -7 0 -12
-4 -12 -9 0 -5 19 -8 43 -7 30 2 41 7 39 17 -1 10 2 9 11 -3 15 -19 48 -22
172 -15 90 5 135 15 135 28 0 5 8 9 18 9 10 0 28 7 40 16 12 8 26 13 31 10 5
-3 17 5 27 19 10 13 21 22 25 19 4 -2 10 3 13 12 3 8 10 13 15 10 5 -3 11 1
15 9 7 20 22 19 44 -3z m2012 6 c0 -4 -7 -8 -15 -8 -8 0 -15 4 -15 8 0 5 7 9
15 9 8 0 15 -4 15 -9z m871 2 c3 -20 4 -25 12 -37 6 -9 2 -13 -13 -13 -23 0
-35 22 -26 45 6 17 25 20 27 5z m-2611 -41 c0 -6 -4 -7 -10 -4 -5 3 -10 11
-10 16 0 6 5 7 10 4 6 -3 10 -11 10 -16z m1560 -4 c20 -11 30 -12 30 -4 0 7 8
6 23 -3 16 -11 26 -12 38 -5 26 16 45 -11 47 -67 2 -42 0 -47 -13 -36 -12 10
-15 10 -15 -4 0 -9 -3 -15 -7 -15 -26 4 -35 -2 -24 -15 7 -9 8 -17 2 -20 -5
-3 -12 0 -15 6 -3 9 -11 6 -24 -9 -22 -25 -36 -20 -21 8 6 12 6 25 0 36 -5 10
-12 26 -15 35 -3 11 -11 15 -21 12 -20 -8 -19 -20 6 -45 17 -17 19 -23 8 -30
-16 -10 -27 -10 -53 0 -19 7 -19 8 2 29 21 21 21 22 3 22 -10 0 -22 7 -25 16
-3 8 -2 12 4 9 6 -3 10 -1 10 5 0 6 5 8 10 5 6 -3 17 1 26 9 14 15 14 16 0 16
-9 0 -16 -3 -16 -7 0 -13 -64 -12 -72 1 -5 7 -8 5 -8 -6 0 -19 -15 -24 -24 -9
-4 5 0 12 6 14 7 3 0 6 -17 6 -27 1 -28 2 -13 18 15 14 19 14 34 2 10 -8 15
-9 11 -3 -4 7 1 18 10 25 20 17 17 18 42 -5 12 -11 21 -16 21 -13 0 4 12 2 28
-4 18 -7 24 -7 17 0 -6 6 -22 12 -35 15 -37 7 -37 7 -15 16 11 5 21 9 23 9 2
1 16 -6 32 -14z m860 -5 c0 -7 -71 -20 -79 -14 -1 1 3 9 10 16 13 14 69 12 69
-2z m-710 6 c0 -3 -4 -8 -10 -11 -5 -3 -10 -1 -10 4 0 6 5 11 10 11 6 0 10 -2
10 -4z m980 -67 c0 -22 -1 -23 -35 -7 -24 11 -24 12 -8 28 21 20 43 9 43 -21z
m-1370 15 c0 -2 -7 -4 -15 -4 -8 0 -15 4 -15 10 0 5 7 7 15 4 8 -4 15 -8 15
-10z m85 -34 c-3 -5 -14 -10 -23 -9 -14 0 -13 2 3 9 27 11 27 11 20 0z m58 -8
c-5 -11 -7 -11 -14 0 -7 10 -9 11 -9 0 0 -7 -5 -10 -11 -6 -8 5 -8 8 0 14 20
12 39 7 34 -8z m897 -23 c0 -5 -4 -9 -10 -9 -5 0 -10 7 -10 16 0 8 5 12 10 9
6 -3 10 -10 10 -16z m-950 -26 c0 -7 5 -13 10 -13 6 0 10 -5 10 -10 0 -7 -7
-7 -20 0 -11 6 -25 8 -30 5 -5 -3 -8 7 -7 23 2 25 4 27 20 18 9 -6 17 -16 17
-23z m907 11 c-9 -9 -28 6 -21 18 4 6 10 6 17 -1 6 -6 8 -13 4 -17z m-830 10
c-3 -3 -12 -4 -19 -1 -8 3 -5 6 6 6 11 1 17 -2 13 -5z m1039 -22 c9 -14 8 -18
-5 -19 -10 -1 -17 6 -17 18 0 24 8 24 22 1z m-1061 -2 c-3 -5 -11 -10 -16 -10
-6 0 -7 5 -4 10 3 6 11 10 16 10 6 0 7 -4 4 -10z m261 -7 c-2 -3 -17 -6 -32
-8 -25 -2 -26 -1 -10 10 16 12 54 10 42 -2z m624 7 c0 -5 -4 -10 -10 -10 -5 0
-10 5 -10 10 0 6 5 10 10 10 6 0 10 -4 10 -10z m110 0 c0 -5 -4 -10 -10 -10
-5 0 -10 5 -10 10 0 6 5 10 10 10 6 0 10 -4 10 -10z m-56 -25 c23 -36 20 -45
-16 -45 -30 1 -31 2 -15 14 12 9 14 16 8 21 -13 8 -15 35 -2 35 5 0 16 -11 25
-25z m-3432 -7 c-7 -7 -12 -8 -12 -2 0 6 3 14 7 17 3 4 9 5 12 2 2 -3 -1 -11
-7 -17z m2528 6 c0 -2 -7 -4 -15 -4 -8 0 -15 4 -15 10 0 5 7 7 15 4 8 -4 15
-8 15 -10z m57 -10 c-3 -3 -12 -4 -19 -1 -8 3 -5 6 6 6 11 1 17 -2 13 -5z
m1215 -13 c14 -14 18 -26 13 -38 -5 -11 -9 -14 -12 -6 -2 7 -11 9 -19 6 -8 -3
-15 0 -15 6 -3 20 -4 26 -12 39 -13 20 21 14 45 -7z m-247 -1 c13 -6 15 -9 5
-9 -8 0 -22 4 -30 9 -18 12 -2 12 25 0z m65 2 c0 -4 -5 -13 -12 -20 -8 -8 -8
-15 2 -27 10 -12 10 -15 -3 -15 -18 0 -28 32 -15 54 9 17 28 22 28 8z m64 -7
c3 -9 0 -15 -9 -15 -8 0 -15 7 -15 15 0 8 4 15 9 15 5 0 11 -7 15 -15z m-1205
-45 c1 -13 0 -13 -9 0 -5 8 -9 24 -9 35 l0 20 9 -20 c5 -11 9 -27 9 -35z m77
28 c6 -7 -10 -10 -32 -7 -4 0 -11 -5 -15 -13 -6 -9 -9 -8 -9 7 0 16 6 21 24
20 13 0 28 -3 32 -7z m-150 -17 c11 9 14 9 14 0 0 -7 5 -9 10 -6 6 4 8 11 5
16 -4 5 -1 9 4 9 14 0 14 -17 1 -25 -12 -7 -14 -26 -2 -24 21 4 42 -2 42 -12
0 -5 -5 -7 -10 -4 -6 4 -19 3 -28 -1 -43 -18 -57 -11 -53 25 2 7 -2 11 -6 8
-5 -3 -10 4 -10 16 -2 20 -1 20 8 4 8 -14 14 -16 25 -6z m231 -2 c-1 -11 -5
-19 -10 -19 -5 0 -7 6 -4 14 4 10 0 12 -14 9 -10 -3 -19 -1 -19 5 0 5 11 10
24 10 18 0 24 -6 23 -19z m-65 -11 c-6 -6 -15 -8 -19 -4 -4 4 -1 11 7 16 8 5
17 7 19 4 3 -2 -1 -10 -7 -16z m38 -2 c0 -2 -7 -7 -16 -10 -8 -3 -12 -2 -9 4
6 10 25 14 25 6z m794 -28 c-9 -31 -12 -34 -25 -21 -15 15 -4 43 16 43 12 0
15 -6 9 -22z m163 0 c-3 -8 -6 -5 -6 6 -1 11 2 17 5 13 3 -3 4 -12 1 -19z
m-96 -5 c38 -23 37 -28 -9 -28 -31 0 -38 4 -40 23 -4 26 10 28 49 5z m-1091
-35 c0 -18 -2 -20 -9 -8 -6 8 -7 18 -5 22 9 14 14 9 14 -14z m168 9 c18 -12
15 -38 -3 -31 -11 4 -13 2 -10 -9 4 -8 14 -14 23 -13 14 1 17 -9 17 -57 1 -51
-1 -58 -17 -54 -10 3 -15 1 -12 -4 9 -15 -24 -59 -44 -59 -10 0 -27 7 -38 15
-22 17 -12 20 17 5 15 -9 24 -6 42 11 l22 22 -27 -5 c-15 -3 -29 -1 -31 5 -1
5 -14 10 -28 10 l-26 0 21 21 c12 12 28 20 36 17 13 -4 13 -3 0 11 -10 11 -19
13 -27 6 -17 -14 -53 0 -46 17 3 8 9 12 14 9 6 -3 15 -2 22 3 7 4 19 8 27 7 8
-1 23 -2 33 -3 9 0 17 -5 17 -10 0 -5 -10 -7 -22 -5 -21 4 -21 4 2 -8 14 -7
28 -17 32 -23 4 -5 8 0 8 12 0 13 -9 28 -20 35 -11 7 -20 16 -20 21 0 4 5 5
11 1 8 -4 9 1 4 17 -4 13 -12 26 -16 27 -13 5 -1 21 14 18 6 -1 18 -5 25 -9z
m65 -4 c-7 -2 -19 -2 -25 0 -7 3 -2 5 12 5 14 0 19 -2 13 -5z m-119 -50 c-12
-9 -20 -10 -22 -3 -2 5 -11 10 -20 10 -24 0 -1 18 28 22 31 4 39 -11 14 -29z
m1016 22 c0 -8 -4 -15 -8 -15 -5 0 -9 7 -9 15 0 8 4 15 9 15 4 0 8 -7 8 -15z
m-900 -4 c0 -5 10 -11 22 -13 12 -2 23 -9 26 -16 4 -14 -18 -7 -63 20 -27 16
-28 18 -7 18 12 0 22 -4 22 -9z m-220 -13 c0 -4 -7 -8 -15 -8 -8 0 -15 4 -15
8 0 5 7 9 15 9 8 0 15 -4 15 -9z m1600 -3 c6 -8 8 -20 4 -26 -5 -9 -11 -7 -21
6 -23 33 -9 51 17 20z m-1290 -25 c5 0 10 7 12 15 2 13 5 13 14 -3 10 -15 8
-18 -13 -20 -33 -3 -44 5 -35 26 6 16 7 16 10 0 2 -10 7 -18 12 -18z m780 6
c0 -8 -4 -18 -10 -21 -5 -3 -10 3 -10 14 0 12 5 21 10 21 6 0 10 -6 10 -14z
m280 -6 c-20 -13 -40 -13 -40 0 0 6 12 10 28 10 21 0 24 -2 12 -10z m-880 -26
c0 -8 -4 -12 -10 -9 -5 3 -10 13 -10 21 0 8 5 12 10 9 6 -3 10 -13 10 -21z
m-454 -29 c18 -14 17 -14 -13 -15 -31 0 -41 9 -26 23 10 10 17 9 39 -8z m1531
-37 c-3 -7 -5 -2 -5 12 0 14 2 19 5 13 2 -7 2 -19 0 -25z m-1609 -10 c-2 -11
3 -23 11 -26 8 -3 11 0 7 6 -3 6 -2 13 3 16 5 3 11 -1 15 -9 3 -8 1 -15 -4
-15 -6 0 -10 -5 -10 -10 0 -6 11 -8 26 -4 19 5 25 4 20 -5 -4 -6 -17 -11 -29
-11 -36 0 -71 52 -50 73 11 12 14 8 11 -15z m1014 -30 c2 -20 9 -33 17 -33 8
0 15 -8 17 -17 1 -10 -2 -18 -7 -18 -5 0 -9 6 -9 13 0 9 -3 8 -9 -2 -12 -19
-41 24 -41 61 0 41 28 37 32 -4z m-5078 -1382 c9 4 13 -4 12 -25 -1 -17 -4
-31 -8 -31 -5 0 -8 -19 -9 -42 -1 -45 -15 -104 -19 -78 -6 45 -7 80 -1 80 3 0
6 11 6 25 0 14 -4 25 -9 25 -5 0 -3 7 4 15 8 10 9 15 2 15 -7 0 -9 7 -5 17 4
10 8 12 10 6 3 -7 10 -10 17 -7z m308 -110 c10 -15 0 -26 -18 -19 -13 5 -15 1
-9 -18 7 -23 6 -23 -8 -4 -8 11 -18 30 -21 43 -7 21 -5 22 21 16 15 -4 31 -12
35 -18z m-257 -83 c11 -23 20 -30 34 -26 10 3 22 -1 27 -8 5 -9 2 -10 -11 -5
-12 4 -24 0 -36 -13 -18 -19 -17 -20 6 -35 13 -8 25 -12 28 -8 2 4 2 1 0 -6
-2 -8 5 -16 16 -19 19 -5 27 -48 10 -59 -5 -3 -6 1 -4 8 7 17 -30 58 -52 58
-9 0 -14 -3 -10 -6 3 -4 0 -18 -7 -33 -6 -14 -12 -38 -11 -52 1 -20 -3 -25
-14 -21 -11 4 -13 0 -9 -16 4 -12 3 -22 -2 -22 -8 0 -20 34 -20 59 0 7 6 11
14 8 9 -4 12 2 10 20 -1 14 -6 28 -10 31 -4 4 -4 -1 -1 -10 4 -12 1 -18 -7
-18 -9 0 -16 16 -19 43 -3 23 -8 58 -12 77 -5 27 -4 31 5 18 17 -28 39 -11 36
27 -1 19 1 32 6 29 4 -3 7 3 6 13 0 10 0 29 2 43 3 20 4 18 7 -10 2 -19 10
-49 18 -67z m852 90 c-4 -3 -2 -12 4 -19 8 -9 5 -11 -11 -7 -16 4 -18 8 -9 19
6 8 14 14 17 14 3 0 2 -3 -1 -7z m-484 -23 c3 6 4 5 3 -2 -2 -7 -10 -11 -17
-9 -8 2 -24 3 -37 3 -19 -2 -20 1 -10 12 11 11 16 11 34 -1 15 -9 24 -10 27
-3z m47 -14 c0 -3 -4 -8 -10 -11 -5 -3 -10 -1 -10 4 0 6 5 11 10 11 6 0 10 -2
10 -4z m467 -18 c7 -6 13 -15 13 -21 0 -6 -3 -7 -7 -4 -3 4 -11 3 -17 -3 -7
-5 -17 -5 -26 1 -13 9 -13 9 0 7 9 -2 15 2 15 7 0 6 -8 9 -17 8 -10 -2 -18 1
-18 5 0 12 43 12 57 0z m-680 -34 c-3 -3 -12 -4 -19 -1 -8 3 -5 6 6 6 11 1 17
-2 13 -5z m478 -14 c3 -5 1 -10 -4 -10 -6 0 -11 5 -11 10 0 6 2 10 4 10 3 0 8
-4 11 -10z m245 -10 c0 -5 -9 -10 -21 -10 -11 0 -17 5 -14 10 3 6 13 10 21 10
8 0 14 -4 14 -10z m-866 -42 c-3 -4 -12 -8 -20 -8 -8 0 -13 4 -10 8 3 5 12 9
20 9 8 0 13 -4 10 -9z m806 -23 c0 -8 -4 -15 -10 -15 -5 0 -10 7 -10 15 0 8 5
15 10 15 6 0 10 -7 10 -15z m-745 -13 c-3 -3 -11 0 -18 7 -9 10 -8 11 6 5 10
-3 15 -9 12 -12z m792 12 c-3 -3 -12 -4 -19 -1 -8 3 -5 6 6 6 11 1 17 -2 13
-5z m-623 -35 c-3 -5 -10 -7 -15 -3 -5 3 -23 -2 -41 -10 -38 -19 -38 -19 -38
-2 0 8 13 17 30 21 16 4 32 11 36 16 4 6 11 6 20 -2 7 -6 11 -15 8 -20z m106
15 c13 -5 13 -6 0 -14 -23 -15 -60 -12 -54 3 5 14 28 19 54 11z m615 -4 c-3
-5 -1 -10 5 -10 6 0 10 -8 9 -17 -3 -32 1 -41 20 -46 13 -3 20 -16 23 -43 3
-22 4 -41 2 -42 -6 -9 -44 10 -38 19 3 6 0 17 -8 26 -7 9 -18 40 -24 70 -8 43
-8 53 3 53 8 0 11 -4 8 -10z m-865 -10 c0 -5 -5 -10 -11 -10 -5 0 -7 5 -4 10
3 6 8 10 11 10 2 0 4 -4 4 -10z m130 -21 c0 -5 4 -7 10 -4 5 3 7 0 4 -8 -5
-14 21 -31 35 -23 4 3 8 -4 8 -15 1 -10 -5 -19 -13 -19 -8 0 -14 5 -14 10 0 6
-4 10 -9 10 -4 0 -6 -11 -3 -25 4 -24 22 -36 22 -15 0 6 9 10 20 10 11 0 20
-4 20 -9 0 -5 13 -12 29 -16 27 -6 29 -9 21 -30 -9 -25 5 -47 19 -29 5 8 55
34 64 34 2 0 4 -12 5 -27 2 -31 10 -41 20 -28 8 11 37 13 48 3 3 -4 3 -15 -1
-25 -12 -27 -15 -143 -5 -143 6 0 10 7 10 16 0 8 5 12 10 9 6 -4 8 -10 5 -15
-3 -5 -1 -11 5 -15 16 -10 12 -45 -5 -45 -8 0 -15 -7 -15 -15 0 -8 -7 -15 -15
-15 -8 0 -15 -4 -15 -10 0 -5 6 -10 13 -10 8 0 7 -3 -3 -10 -12 -8 -11 -13 8
-33 15 -15 20 -31 16 -43 -4 -12 -3 -15 3 -7 5 7 18 10 29 7 15 -4 20 -12 17
-28 -4 -16 1 -25 14 -28 17 -4 18 0 12 61 -3 36 -5 67 -4 69 1 1 15 -4 30 -12
24 -13 30 -13 42 0 8 8 12 21 9 29 -3 8 -1 15 3 15 9 0 21 -24 21 -41 0 -5 -7
-9 -16 -9 -11 0 -13 -6 -9 -19 5 -15 -2 -24 -27 -37 -18 -10 -28 -19 -22 -21
6 -2 8 -17 6 -33 -3 -19 0 -30 7 -30 7 0 9 -5 6 -10 -4 -7 -13 -6 -27 1 -11 6
-18 7 -16 2 18 -33 24 -57 32 -131 4 -33 2 -52 -5 -52 -5 0 -8 -4 -4 -9 3 -6
-3 -14 -13 -20 -14 -8 -19 -6 -19 5 0 7 5 14 10 14 6 0 8 2 5 5 -8 9 -38 -6
-32 -16 3 -5 -2 -9 -10 -9 -9 0 -16 -4 -16 -10 0 -5 -9 -10 -21 -10 -15 0 -19
-5 -15 -15 5 -15 -10 -20 -43 -16 -7 2 -10 -2 -6 -8 4 -7 -4 -11 -19 -11 -21
0 -26 6 -32 35 -4 25 -11 35 -25 35 -11 0 -19 5 -19 11 0 6 7 9 15 5 10 -3 17
3 21 22 4 15 12 30 18 34 6 5 7 8 1 8 -15 0 -31 -13 -37 -30 -4 -11 -9 -8 -18
12 -14 30 -36 43 -46 26 -4 -6 -3 -9 2 -6 5 3 15 0 22 -8 7 -8 9 -14 4 -14 -5
0 -8 -18 -6 -41 3 -29 0 -39 -9 -36 -6 2 -11 14 -9 25 2 16 -1 20 -12 16 -8
-3 -12 -12 -9 -20 3 -8 0 -14 -6 -14 -6 0 -11 -7 -11 -15 0 -8 -7 -15 -15 -15
-8 0 -15 -7 -15 -15 0 -28 -41 7 -61 53 -10 23 -22 42 -28 42 -5 0 -16 19 -26
43 -29 74 -40 97 -46 97 -4 0 -12 15 -20 33 -7 17 -15 34 -18 37 -11 9 -41 80
-41 95 0 8 -4 15 -9 15 -8 0 -45 90 -46 115 -1 6 -7 28 -15 50 -7 22 -14 51
-15 65 -1 14 -4 30 -7 35 -3 6 -2 19 3 30 6 16 8 14 8 -12 1 -39 16 -43 25 -8
4 16 11 23 18 19 8 -5 9 -2 5 10 -4 10 -1 24 6 31 32 36 38 46 32 54 -3 5 2
17 12 26 15 16 18 16 28 1 7 -9 18 -16 25 -16 9 0 10 -3 1 -14 -6 -7 -10 -28
-9 -45 3 -35 15 -29 20 9 2 18 8 24 21 22 15 -3 17 1 12 17 -4 15 -2 21 8 21
9 0 18 -6 20 -12 3 -8 6 -6 6 5 1 16 -9 21 -36 18 -6 -1 -14 3 -18 9 -4 6 4
10 19 10 14 0 37 11 52 25 29 27 44 32 44 14z m-235 -9 c-3 -5 -11 -10 -16
-10 -6 0 -7 5 -4 10 3 6 11 10 16 10 6 0 7 -4 4 -10z m945 0 c0 -5 -2 -10 -4
-10 -3 0 -8 5 -11 10 -3 6 -1 10 4 10 6 0 11 -4 11 -10z m-835 -10 c-3 -5 -14
-10 -23 -11 -14 0 -13 -2 3 -9 13 -6 15 -9 5 -9 -19 -1 -34 10 -37 27 -2 7 8
12 28 12 17 0 28 -4 24 -10z m288 -10 c6 -23 -1 -32 -35 -47 -17 -8 -30 -9
-33 -3 -4 6 3 10 13 10 28 0 48 26 26 34 -9 3 -23 1 -30 -5 -11 -9 -14 -8 -14
5 0 10 4 15 9 11 5 -3 12 -2 15 3 9 16 44 10 49 -8z m67 -10 c0 -5 -2 -10 -4
-10 -3 0 -8 5 -11 10 -3 6 -1 10 4 10 6 0 11 -4 11 -10z m-465 -20 c-2 -11 -8
-28 -14 -37 -9 -15 -10 -13 -11 14 0 17 6 34 13 36 6 3 13 6 14 6 1 1 0 -8 -2
-19z m502 -26 c-9 -9 -28 6 -21 18 4 6 10 6 17 -1 6 -6 8 -13 4 -17z m-37 1
c0 -17 -2 -18 -24 -9 -23 9 -20 24 4 24 11 0 20 -7 20 -15z m34 -77 c-3 -4
-11 -5 -20 -1 -11 4 -12 8 -3 20 10 11 14 11 20 1 4 -6 6 -15 3 -20z m-554 12
c0 -5 -4 -10 -10 -10 -5 0 -10 5 -10 10 0 6 5 10 10 10 6 0 10 -4 10 -10z
m760 -74 c0 -3 -4 -8 -10 -11 -5 -3 -10 -1 -10 4 0 6 5 11 10 11 6 0 10 -2 10
-4z m-80 -16 c0 -5 -7 -10 -15 -10 -8 0 -15 5 -15 10 0 6 7 10 15 10 8 0 15
-4 15 -10z m-30 -46 c0 -9 -5 -14 -12 -12 -18 6 -21 28 -4 28 9 0 16 -7 16
-16z m544 6 c17 -6 24 -14 20 -24 -3 -9 4 -27 15 -42 12 -15 21 -40 21 -57 0
-17 3 -27 7 -24 7 8 33 -11 33 -24 0 -5 -7 -9 -15 -9 -8 0 -15 5 -15 10 0 19
-29 10 -32 -10 -4 -26 -22 -27 -26 -3 -7 42 -13 49 -23 30 -6 -9 -8 -21 -5
-26 6 -10 -38 -61 -53 -61 -5 0 -13 5 -16 10 -3 6 -15 10 -26 10 -19 0 -19 0
1 -20 26 -26 25 -35 -2 -54 -35 -25 -40 -20 -36 34 1 28 0 50 -4 50 -5 0 -8 8
-8 18 0 22 22 72 33 72 4 0 7 6 7 13 0 8 11 20 25 27 15 8 25 22 25 36 0 18 5
22 30 20 17 -1 30 1 30 6 0 4 -4 8 -10 8 -5 0 -10 5 -10 10 0 12 2 12 34 0z
m1118 -70 c7 -16 17 -30 21 -30 5 0 6 14 2 30 -5 23 -3 30 9 30 12 0 16 -11
16 -48 0 -27 -3 -52 -7 -55 -9 -9 -43 22 -43 40 0 7 -4 13 -10 13 -5 0 -10
-13 -10 -30 0 -16 -4 -30 -10 -30 -5 0 -10 25 -10 55 0 63 19 75 42 25z m146
18 c20 -20 15 -76 -8 -88 -50 -27 -96 22 -71 76 12 27 57 34 79 12z m148 4
c18 -11 26 -50 15 -70 -34 -64 -119 -13 -89 53 11 25 49 34 74 17z m61 -22 c8
-43 20 -45 27 -5 6 33 26 50 26 23 0 -28 -29 -93 -41 -93 -6 0 -20 24 -30 53
-15 44 -16 52 -3 52 8 0 17 -13 21 -30z m93 10 c0 -13 7 -20 20 -20 13 0 20 7
20 20 0 11 6 20 13 20 8 0 12 -17 11 -52 0 -29 -4 -52 -7 -50 -4 1 -11 2 -16
2 -5 0 -7 9 -4 20 4 15 0 20 -15 20 -14 0 -22 -8 -24 -22 -2 -19 -18 -30 -18
-13 0 3 0 25 0 50 0 25 5 45 10 45 6 0 10 -9 10 -20z m171 -4 c25 -55 -20
-103 -70 -76 -24 12 -29 68 -9 88 22 22 67 15 79 -12z m99 14 c0 -5 -11 -10
-25 -10 -14 0 -25 -4 -25 -10 0 -5 11 -10 25 -10 33 0 32 -18 0 -22 -33 -4
-32 -23 0 -23 14 0 25 -4 25 -10 0 -5 -17 -10 -37 -10 l-38 0 -1 53 -1 52 38
0 c22 0 39 -4 39 -10z m98 -9 c3 -10 -3 -11 -27 -6 -19 4 -31 3 -31 -3 0 -6
14 -13 30 -17 23 -5 30 -12 30 -30 0 -15 -7 -26 -20 -30 -27 -9 -60 3 -60 21
0 11 4 12 19 4 24 -12 41 -13 41 -1 0 5 -13 14 -30 20 -29 10 -40 37 -23 55
12 12 66 2 71 -13z m80 -9 c5 -30 22 -28 22 3 0 37 26 31 35 -7 l8 -33 6 29
c3 16 12 31 19 34 15 5 15 -2 -2 -57 -16 -55 -32 -62 -42 -19 l-7 33 -9 -33
c-5 -18 -14 -32 -20 -30 -10 4 -37 78 -38 101 0 19 25 -1 28 -21z m192 18 c0
-5 -11 -10 -25 -10 -14 0 -25 -4 -25 -10 0 -5 11 -10 25 -10 14 0 25 -4 25
-10 0 -5 -11 -10 -25 -10 -14 0 -25 -6 -25 -14 0 -7 8 -13 18 -13 33 0 43 -3
38 -11 -2 -4 -22 -8 -43 -7 l-38 0 -3 53 -3 52 40 0 c23 0 41 -4 41 -10z m96
-2 c11 -18 13 -98 2 -98 -4 0 -13 12 -18 26 -12 30 -34 27 -38 -4 -7 -44 -22
-20 -22 33 l0 55 34 0 c19 0 38 -5 42 -12z m104 2 c0 -5 -11 -10 -25 -10 -14
0 -25 -4 -25 -10 0 -5 11 -10 25 -10 14 0 25 -4 25 -10 0 -5 -11 -10 -25 -10
-16 0 -25 -6 -25 -15 0 -10 10 -15 31 -15 18 0 28 -4 24 -10 -4 -6 -23 -9 -43
-7 l-36 2 -2 53 -1 52 38 0 c22 0 39 -4 39 -10z m85 -10 c-5 -16 -2 -20 14
-20 14 0 21 6 21 20 0 11 7 20 16 20 12 0 14 -10 12 -50 -2 -28 -7 -50 -13
-50 -5 0 -10 8 -10 18 0 10 -8 17 -20 17 -13 0 -20 -7 -20 -20 0 -11 -5 -20
-10 -20 -6 0 -11 24 -13 53 -2 42 0 52 13 52 12 0 15 -6 10 -20z m155 -32 c19
-51 16 -66 -9 -44 -22 20 -31 20 -46 -1 -23 -31 -28 -7 -10 47 21 63 40 63 65
-2z m107 40 c10 -14 10 -85 0 -95 -4 -3 -11 6 -17 21 -11 30 -35 30 -35 1 0
-10 -6 -20 -13 -23 -8 -2 -12 12 -12 52 l0 56 34 0 c18 0 38 -6 43 -12z m68
-25 l8 -38 10 38 c6 25 15 37 27 37 15 0 17 -8 16 -50 0 -28 -5 -49 -11 -48
-5 2 -10 11 -9 21 0 9 -3 17 -8 17 -4 0 -8 -12 -8 -26 0 -31 -23 -28 -28 4 -2
12 -8 22 -13 22 -6 0 -9 -9 -7 -20 2 -10 -1 -20 -7 -22 -6 -2 -11 21 -13 50
-3 46 -1 52 16 52 15 0 22 -10 27 -37z m155 27 c0 -5 -11 -10 -25 -10 -14 0
-25 -4 -25 -10 0 -5 11 -10 25 -10 14 0 25 -4 25 -10 0 -5 -11 -10 -25 -10
-16 0 -25 -6 -25 -16 0 -12 7 -15 25 -12 14 3 28 1 31 -3 6 -10 -1 -11 -41
-11 -14 0 -29 0 -35 1 -5 0 -10 24 -10 51 l0 50 40 0 c22 0 40 -4 40 -10z m98
-2 c14 -14 16 -57 3 -76 -4 -8 -24 -14 -42 -15 l-34 -2 -3 53 -3 52 33 0 c19
0 39 -5 46 -12z m150 -35 c2 -34 -1 -44 -17 -53 -11 -6 -32 -8 -45 -4 -23 5
-25 10 -21 53 2 25 4 47 4 49 1 2 18 2 39 0 36 -3 37 -4 40 -45z m46 20 c-4
-38 4 -63 22 -63 10 0 14 13 14 45 0 59 26 64 28 6 2 -56 -27 -82 -72 -65 -21
8 -23 104 -2 104 9 0 12 -9 10 -27z m163 -31 c2 -39 -1 -53 -10 -50 -6 3 -13
14 -15 26 -5 31 -32 28 -32 -4 0 -46 -25 -20 -26 27 -1 58 1 61 44 57 l37 -3
2 -53z m43 2 c0 -72 -21 -69 -24 4 -1 36 2 52 11 52 9 0 13 -17 13 -56z m63
24 l16 -33 0 33 c1 55 26 39 26 -18 0 -61 -18 -72 -42 -27 l-18 32 -3 -32 c-5
-54 -22 -37 -22 22 0 64 17 73 43 23z m148 16 c11 -13 8 -15 -27 -12 -33 2
-39 0 -42 -17 -4 -34 13 -50 40 -38 18 9 19 12 6 12 -28 1 -21 21 7 21 21 0
25 -5 25 -29 0 -27 -2 -29 -38 -27 -20 1 -43 5 -50 10 -15 9 -16 50 -2 77 13
23 62 26 81 3z m-4164 -28 c-10 -8 -34 -14 -54 -14 -59 0 -14 23 52 26 19 1
19 1 2 -12z m4 -39 c-13 -13 -26 -3 -16 12 3 6 11 8 17 5 6 -4 6 -10 -1 -17z
m-57 -9 c-8 -27 -12 -33 -19 -27 -7 8 7 49 17 49 5 0 6 -10 2 -22z m2410 -60
c26 -64 28 -78 12 -78 -9 0 -16 5 -16 10 0 14 -38 12 -43 -2 -2 -7 -8 -10 -12
-6 -12 11 25 108 42 108 2 0 10 -15 17 -32z m66 6 c0 -12 5 -11 27 5 30 25 44
20 20 -7 -22 -24 -21 -34 3 -60 20 -21 20 -22 2 -22 -11 0 -27 10 -35 23 l-16
22 0 -22 c-1 -14 -7 -23 -16 -23 -11 0 -15 12 -15 48 0 27 3 52 6 55 10 10 24
-2 24 -19z m730 -5 c0 -12 7 -19 20 -19 13 0 20 7 20 20 0 11 5 20 10 20 6 0
10 -22 10 -50 0 -27 -4 -50 -10 -50 -5 0 -10 9 -10 20 0 13 -7 20 -20 20 -13
0 -20 -7 -20 -20 0 -12 -7 -20 -16 -20 -13 0 -15 8 -9 46 5 40 4 46 -10 40 -9
-3 -21 -6 -27 -6 -6 0 -8 -17 -6 -40 2 -28 0 -40 -9 -40 -8 0 -13 14 -13 40 0
29 -4 40 -15 40 -8 0 -15 4 -15 9 0 9 96 20 113 13 4 -2 7 -12 7 -23z m-1230
11 c0 -5 -7 -10 -15 -10 -11 0 -15 -11 -15 -40 0 -29 -4 -40 -15 -40 -11 0
-15 11 -15 40 0 29 -4 40 -15 40 -8 0 -15 5 -15 10 0 6 20 10 45 10 25 0 45
-4 45 -10z m30 -10 c0 -13 7 -20 20 -20 13 0 20 7 20 20 0 11 6 20 13 20 8 0
12 -17 13 -50 1 -36 -2 -50 -12 -50 -8 0 -14 9 -14 20 0 14 -7 20 -21 20 -16
0 -20 -5 -16 -20 3 -13 0 -20 -9 -20 -10 0 -14 14 -14 50 0 28 5 50 10 50 6 0
10 -9 10 -20z m160 10 c0 -5 -11 -10 -25 -10 -14 0 -25 -4 -25 -10 0 -5 11
-10 25 -10 14 0 25 -4 25 -10 0 -5 -11 -10 -24 -10 -14 0 -28 -4 -31 -10 -4
-6 8 -10 29 -10 20 0 36 -4 36 -10 0 -5 -20 -10 -45 -10 l-45 0 0 50 0 50 40
0 c22 0 40 -4 40 -10z m100 -20 c0 -38 18 -40 22 -3 2 16 10 29 19 31 14 2 18
-7 20 -47 3 -36 0 -51 -8 -51 -7 0 -14 12 -14 28 l-2 27 -4 -27 c-2 -16 -10
-28 -18 -28 -7 0 -18 12 -23 28 l-10 27 -1 -27 c-2 -50 -21 -29 -21 22 0 43 3
50 20 50 16 0 20 -7 20 -30z m310 -20 c0 -27 -4 -50 -10 -50 -5 0 -10 23 -10
50 0 28 5 50 10 50 6 0 10 -22 10 -50z m63 18 l16 -33 0 33 c1 55 26 39 26
-18 0 -60 -22 -68 -48 -17 l-16 32 0 -32 c-1 -54 -21 -37 -21 17 0 59 18 67
43 18z m146 19 c17 -21 1 -28 -25 -10 -22 14 -24 14 -36 -11 -9 -22 -9 -29 3
-42 10 -9 23 -12 34 -8 17 7 17 8 -1 21 -16 12 -16 13 9 13 22 0 27 -5 27 -24
0 -28 -37 -39 -72 -22 -26 13 -36 59 -17 82 15 18 63 18 78 1z m155 -3 c23
-61 -11 -106 -62 -82 -30 15 -39 46 -22 77 13 26 75 30 84 5z m106 6 c0 -5
-13 -10 -30 -10 -16 0 -30 -4 -30 -10 0 -5 11 -10 25 -10 14 0 25 -4 25 -10 0
-5 -12 -10 -26 -10 -21 0 -25 -4 -21 -20 3 -13 0 -20 -9 -20 -10 0 -14 14 -14
50 l0 50 40 0 c22 0 40 -4 40 -10z m260 -40 c0 -27 -4 -50 -10 -50 -5 0 -10
23 -10 50 0 28 5 50 10 50 6 0 10 -22 10 -50z m95 39 c11 -17 -4 -24 -24 -12
-18 11 -31 8 -31 -7 0 -4 14 -10 30 -13 35 -7 42 -40 12 -56 -24 -13 -62 -3
-62 15 0 17 12 18 28 2 9 -9 15 -9 24 0 12 12 12 12 -37 27 -8 2 -15 16 -15
30 0 22 4 25 34 25 19 0 38 -5 41 -11z m92 -21 l11 -33 7 33 c4 17 14 32 21
32 17 0 17 3 -2 -53 -9 -26 -22 -47 -29 -47 -7 0 -20 21 -29 47 -19 56 -19 53
-2 53 7 0 18 -15 23 -32z m85 -18 c2 -35 -1 -50 -9 -50 -9 0 -13 17 -13 50 0
65 17 65 22 0z m103 0 l0 -45 -42 -3 -43 -3 0 51 0 51 43 -3 42 -3 0 -45z
m105 40 c0 -5 -13 -10 -30 -10 -16 0 -30 -4 -30 -10 0 -5 11 -10 25 -10 14 0
25 -4 25 -10 0 -5 -11 -10 -25 -10 -14 0 -25 -4 -25 -10 0 -5 14 -10 30 -10
17 0 30 -4 30 -10 0 -5 -18 -10 -40 -10 l-40 0 0 50 0 50 40 0 c22 0 40 -4 40
-10z m98 -2 c13 -13 16 -57 4 -74 -26 -38 -92 -14 -92 34 0 35 16 52 50 52 14
0 31 -5 38 -12z m52 -78 c0 -5 -7 -10 -15 -10 -8 0 -15 5 -15 10 0 6 7 10 15
10 8 0 15 -4 15 -10z m-3834 -67 c-3 -3 -13 -2 -23 2 -17 7 -17 8 2 15 19 7
34 -5 21 -17z m342 -25 c-5 -16 -48 -24 -48 -10 0 11 17 20 38 21 8 1 12 -5
10 -11z m-98 -52 c0 -16 -7 -26 -22 -29 -30 -8 -34 -2 -18 28 17 32 40 32 40
1z m36 -14 c-14 -14 -17 -14 -14 -2 3 17 20 31 27 24 3 -2 -3 -12 -13 -22z
m48 3 c-7 -16 -24 -21 -24 -6 0 8 7 13 27 20 1 1 0 -6 -3 -14z m-92 -57 c-3
-18 -7 -27 -9 -20 -3 6 -11 12 -19 12 -17 0 -18 12 -2 28 22 22 35 13 30 -20z
m99 2 c5 0 6 -12 3 -26 -5 -18 -1 -30 15 -45 22 -21 28 -39 11 -39 -5 0 -10 6
-10 14 0 23 -14 26 -44 10 -40 -20 -42 -19 -42 24 1 43 22 76 43 67 8 -3 19
-5 24 -5z m-121 -34 c0 -8 5 -16 11 -18 7 -2 7 -12 0 -32 -6 -15 -9 -32 -5
-37 3 -5 1 -9 -4 -9 -6 0 -13 -12 -16 -26 -5 -18 -12 -24 -22 -20 -9 3 -20 6
-25 6 -5 0 -9 7 -9 16 0 8 5 12 10 9 6 -3 15 -3 21 1 15 9 -9 24 -38 24 -38 0
-35 19 4 26 42 8 63 28 55 56 -2 10 1 18 7 18 6 0 11 -6 11 -14z m75 -126 c3
-5 -1 -10 -10 -10 -9 0 -13 5 -10 10 3 6 8 10 10 10 2 0 7 -4 10 -10z m85 -10
c0 -11 -4 -20 -10 -20 -5 0 -10 9 -10 20 0 11 5 20 10 20 6 0 10 -9 10 -20z
m-663 -24 c3 -3 -8 -6 -25 -6 -18 0 -32 4 -32 9 0 10 47 8 57 -3z m461 -4 c3
-9 -2 -13 -14 -10 -9 1 -19 9 -22 16 -3 9 2 13 14 10 9 -1 19 -9 22 -16z
m-536 -14 c-7 -7 -12 -8 -12 -2 0 14 12 26 19 19 2 -3 -1 -11 -7 -17z"/>
<path d="M6316 4931 c-3 -5 1 -11 9 -15 8 -3 15 -1 15 4 0 13 -18 22 -24 11z"/>
<path d="M6015 4920 c3 -5 10 -10 16 -10 5 0 9 5 9 10 0 6 -7 10 -16 10 -8 0
-12 -4 -9 -10z"/>
<path d="M6022 4884 c-20 -22 -7 -32 38 -28 45 4 56 -13 13 -18 l-28 -4 28
-12 c16 -7 25 -16 22 -22 -3 -6 1 -7 9 -4 17 7 22 24 6 24 -5 0 -7 13 -5 29 3
27 2 28 -30 24 -24 -3 -34 0 -37 10 -3 13 -5 13 -16 1z"/>
<path d="M6002 4700 c0 -14 2 -19 5 -12 2 6 2 18 0 25 -3 6 -5 1 -5 -13z"/>
<path d="M6976 4582 c-3 -5 1 -15 8 -21 11 -10 14 -9 12 3 -3 21 -13 29 -20
18z"/>
<path d="M7028 4579 c-24 -13 -23 -34 1 -36 13 -1 20 6 24 23 5 26 1 28 -25
13z"/>
<path d="M6472 4488 c-15 -15 -15 -28 0 -28 6 0 8 3 5 7 -4 3 -2 12 4 20 14
16 7 17 -9 1z"/>
<path d="M6976 4462 c-2 -4 -1 -14 5 -22 7 -12 9 -10 9 8 0 23 -5 28 -14 14z"/>
<path d="M6425 4440 c-3 -5 -1 -10 4 -10 6 0 11 5 11 10 0 6 -2 10 -4 10 -3 0
-8 -4 -11 -10z"/>
<path d="M7055 4372 c0 -37 3 -72 7 -77 4 -6 3 -17 -3 -25 -5 -8 -9 -30 -9
-49 0 -26 3 -32 16 -27 9 3 20 6 26 6 6 0 8 6 5 13 -3 7 1 21 9 31 13 18 14
18 24 -8 10 -28 30 -27 30 2 0 12 3 13 12 4 7 -7 29 -9 57 -6 34 4 42 3 31 -5
-13 -9 -13 -11 1 -11 9 0 22 7 29 15 10 12 10 15 -3 15 -11 0 -15 6 -11 18 5
16 5 16 -6 0 -8 -14 -16 -15 -37 -7 -14 5 -28 7 -30 5 -5 -4 -26 16 -65 63
-12 14 -13 21 -5 25 9 3 7 9 -4 18 -9 7 -14 19 -12 26 3 6 -1 12 -7 12 -9 0
-9 4 -2 13 8 9 3 13 -21 14 l-32 3 0 -68z m45 -65 c0 -12 5 -17 14 -14 8 3 22
0 32 -7 15 -11 13 -12 -14 -8 -26 3 -32 1 -32 -14 0 -26 -10 -11 -15 22 -2 16
-7 40 -10 54 -6 24 -6 24 9 6 9 -11 16 -28 16 -39z"/>
<path d="M6906 4411 c-4 -7 -5 -15 -2 -18 9 -9 19 4 14 18 -4 11 -6 11 -12 0z"/>
<path d="M6380 4395 c0 -9 6 -12 15 -9 8 4 15 10 15 15 0 5 -7 9 -15 9 -8 0
-15 -7 -15 -15z"/>
<path d="M6425 4400 c3 -5 8 -10 11 -10 2 0 4 5 4 10 0 6 -5 10 -11 10 -5 0
-7 -4 -4 -10z"/>
<path d="M6505 4400 c-3 -5 -2 -10 4 -10 5 0 13 5 16 10 3 6 2 10 -4 10 -5 0
-13 -4 -16 -10z"/>
<path d="M6605 4380 c-3 -5 -1 -10 4 -10 6 0 11 5 11 10 0 6 -2 10 -4 10 -3 0
-8 -4 -11 -10z"/>
<path d="M6437 4366 c-4 -10 -1 -13 8 -9 8 3 12 9 9 14 -7 12 -11 11 -17 -5z"/>
<path d="M6926 4335 c8 -19 11 -35 7 -35 -10 0 30 -29 41 -30 5 0 4 6 -1 13
-6 6 -13 23 -16 37 -4 14 -15 30 -26 37 -19 12 -19 11 -5 -22z"/>
<path d="M6407 4343 c-11 -11 3 -22 20 -16 12 5 14 3 8 -7 -5 -9 -4 -11 3 -6
7 4 12 9 12 11 0 8 -38 24 -43 18z"/>
<path d="M6489 4303 c-13 -16 -12 -17 4 -4 16 13 21 21 13 21 -2 0 -10 -8 -17
-17z"/>
<path d="M7310 4205 c0 -8 -7 -15 -16 -15 -8 0 -12 4 -9 10 3 5 0 7 -9 4 -36
-14 -29 -86 13 -136 19 -24 26 -22 26 7 0 14 -6 25 -12 25 -18 0 -16 7 13 45
21 28 23 37 14 54 -13 25 -20 27 -20 6z"/>
<path d="M6975 4190 c-3 -5 -1 -10 4 -10 6 0 11 5 11 10 0 6 -2 10 -4 10 -3 0
-8 -4 -11 -10z"/>
<path d="M6890 4170 c0 -5 4 -10 9 -10 6 0 13 5 16 10 3 6 -1 10 -9 10 -9 0
-16 -4 -16 -10z"/>
<path d="M6863 4120 c-9 -16 -21 -30 -26 -30 -5 0 -7 -9 -4 -20 3 -14 -1 -24
-15 -31 -23 -13 -19 -34 8 -34 19 0 43 37 51 80 2 11 10 23 18 28 8 4 15 15
15 22 0 26 -28 16 -47 -15z"/>
<path d="M7340 4130 c0 -5 9 -10 21 -10 11 0 17 5 14 10 -3 6 -13 10 -21 10
-8 0 -14 -4 -14 -10z"/>
<path d="M6795 3940 c3 -5 14 -10 23 -10 15 0 15 2 2 10 -20 13 -33 13 -25 0z"/>
<path d="M5852 4339 c-13 -5 -20 -13 -17 -19 4 -7 -2 -7 -19 0 -22 8 -26 7
-26 -8 -1 -14 -3 -14 -13 4 l-12 21 -22 -22 c-12 -13 -19 -26 -16 -29 4 -3 2
-6 -4 -6 -6 0 -13 -9 -16 -20 -3 -11 -2 -20 3 -20 4 0 10 9 13 20 4 15 10 18
24 13 15 -6 16 -4 6 9 -16 18 -5 32 13 17 9 -7 11 -17 5 -28 -16 -31 7 -80 44
-95 19 -8 35 -20 35 -26 0 -7 -10 -5 -28 4 -26 13 -28 13 -29 -5 -1 -10 3 -21
8 -24 5 -4 6 -12 2 -18 -4 -8 -1 -7 9 1 13 11 20 11 36 1 16 -10 25 -10 44 -1
13 7 16 11 7 8 -9 -2 -22 0 -30 6 -11 8 -11 9 2 5 9 -3 22 -1 29 3 8 5 18 6
23 3 13 -8 -24 -43 -46 -43 -20 0 -20 0 -1 -21 14 -15 15 -22 6 -28 -8 -5 0
-8 20 -8 37 0 52 15 36 35 -8 9 -8 16 2 25 10 10 12 9 7 -5 -10 -29 1 -20 20
15 13 24 18 28 21 15 2 -10 8 -18 13 -18 6 0 7 5 3 12 -4 6 2 17 12 25 18 13
17 14 -11 8 -29 -5 -30 -5 -5 6 21 10 22 13 8 16 -10 3 -18 12 -18 21 0 13 2
14 9 4 6 -10 11 -6 19 17 12 34 27 44 17 11 -4 -13 -2 -20 6 -20 7 0 9 3 6 7
-4 3 -2 12 4 19 8 10 5 16 -15 25 -14 7 -23 16 -20 20 3 5 1 9 -5 9 -5 0 -24
14 -41 31 -33 34 -78 45 -118 28z m156 -104 c-2 -16 -10 -25 -25 -28 -13 -2
-23 0 -23 4 0 5 7 9 16 9 11 0 14 5 10 16 -3 9 -3 20 0 25 9 16 24 -1 22 -26z
m-53 -104 c3 -5 1 -12 -5 -16 -5 -3 -10 1 -10 9 0 18 6 21 15 7z m-28 -77 c-3
-3 -12 -4 -19 -1 -8 3 -5 6 6 6 11 1 17 -2 13 -5z"/>
<path d="M5718 4239 c-11 -12 -13 -19 -5 -22 15 -6 37 17 29 30 -4 5 -14 2
-24 -8z"/>
<path d="M6030 4170 c6 -11 16 -20 23 -20 7 0 6 4 -3 10 -12 8 -12 10 5 10 17
0 17 2 5 10 -27 17 -42 12 -30 -10z"/>
<path d="M5458 3803 c7 -3 16 -2 19 1 4 3 -2 6 -13 5 -11 0 -14 -3 -6 -6z"/>
<path d="M5081 3636 c-9 -11 -9 -16 1 -22 7 -4 10 -4 6 1 -4 4 -3 14 3 22 6 7
9 13 6 13 -2 0 -10 -6 -16 -14z"/>
<path d="M5004 3585 c-10 -8 -14 -15 -8 -15 6 0 17 7 24 15 16 19 9 19 -16 0z"/>
<path d="M5770 3589 c0 -5 5 -7 10 -4 6 3 10 8 10 11 0 2 -4 4 -10 4 -5 0 -10
-5 -10 -11z"/>
<path d="M5757 3513 c-4 -3 -7 -13 -7 -21 0 -18 13 -7 16 13 2 17 1 18 -9 8z"/>
<path d="M6028 3483 c6 -2 18 -2 25 0 6 3 1 5 -13 5 -14 0 -19 -2 -12 -5z"/>
<path d="M6074 3479 c-3 -6 -1 -16 6 -22 10 -9 11 -9 5 2 -6 10 -2 12 14 6 26
-8 27 1 2 15 -14 7 -22 7 -27 -1z"/>
<path d="M5930 3472 c0 -7 -7 -12 -16 -12 -8 0 -12 -4 -9 -10 3 -5 10 -10 15
-10 10 0 22 31 15 38 -3 3 -5 0 -5 -6z"/>
<path d="M5981 3473 c-1 -7 -9 -13 -18 -13 -15 0 -16 -2 -3 -10 18 -11 35 2
27 22 -4 9 -6 10 -6 1z"/>
<path d="M6000 3451 c0 -6 4 -13 10 -16 6 -3 7 1 4 9 -7 18 -14 21 -14 7z"/>
<path d="M6136 3453 c5 -5 12 -12 16 -18 4 -6 8 -2 8 8 0 9 -7 17 -17 17 -9 0
-12 -3 -7 -7z"/>
<path d="M6000 3416 c0 -2 7 -6 15 -10 8 -3 15 -1 15 4 0 6 -7 10 -15 10 -8 0
-15 -2 -15 -4z"/>
<path d="M6155 3410 c-3 -5 1 -10 9 -10 9 0 16 5 16 10 0 6 -4 10 -9 10 -6 0
-13 -4 -16 -10z"/>
<path d="M5950 3400 c0 -5 7 -10 15 -10 8 0 15 5 15 10 0 6 -7 10 -15 10 -8 0
-15 -4 -15 -10z"/>
<path d="M6048 3393 c7 -3 16 -2 19 1 4 3 -2 6 -13 5 -11 0 -14 -3 -6 -6z"/>
<path d="M5967 3374 c-4 -4 -4 -10 -1 -15 6 -10 34 0 34 12 0 10 -24 12 -33 3z"/>
<path d="M6105 3260 c4 -6 11 -8 16 -5 14 9 11 15 -7 15 -8 0 -12 -5 -9 -10z"/>
<path d="M4882 3525 c-11 -24 -10 -25 8 -15 11 6 17 16 14 25 -8 20 -9 19 -22
-10z"/>
<path d="M5870 3299 c0 -5 9 -9 20 -9 11 0 20 2 20 4 0 2 -9 6 -20 9 -11 3
-20 1 -20 -4z"/>
<path d="M5941 3273 c-1 -17 16 -25 25 -12 4 7 3 9 -4 5 -5 -3 -13 0 -15 6 -4
9 -6 10 -6 1z"/>
<path d="M1560 3121 c0 -6 4 -13 10 -16 6 -3 7 1 4 9 -7 18 -14 21 -14 7z"/>
<path d="M3285 3071 c-6 -11 13 -26 22 -17 4 3 1 6 -6 6 -7 0 -9 5 -6 10 3 6
4 10 1 10 -3 0 -7 -4 -11 -9z"/>
<path d="M1571 3054 c0 -11 3 -14 6 -6 3 7 2 16 -1 19 -3 4 -6 -2 -5 -13z"/>
<path d="M3050 2819 c0 -5 5 -7 10 -4 6 3 10 8 10 11 0 2 -4 4 -10 4 -5 0 -10
-5 -10 -11z"/>
<path d="M2267 2046 c-10 -8 -14 -16 -10 -19 5 -3 14 3 21 14 14 22 13 23 -11
5z"/>
<path d="M2575 1390 c3 -5 11 -10 16 -10 6 0 7 5 4 10 -3 6 -11 10 -16 10 -6
0 -7 -4 -4 -10z"/>
<path d="M2538 1373 c7 -3 16 -2 19 1 4 3 -2 6 -13 5 -11 0 -14 -3 -6 -6z"/>
<path d="M2400 1260 c0 -5 5 -10 11 -10 5 0 7 5 4 10 -3 6 -8 10 -11 10 -2 0
-4 -4 -4 -10z"/>
<path d="M4380 3300 c0 -5 5 -10 11 -10 5 0 7 5 4 10 -3 6 -8 10 -11 10 -2 0
-4 -4 -4 -10z"/>
<path d="M5946 3201 c-4 -5 -2 -12 3 -15 5 -4 12 -2 15 3 4 5 2 12 -3 15 -5 4
-12 2 -15 -3z"/>
<path d="M6147 3203 c-10 -10 -8 -33 2 -33 6 0 9 9 8 20 -1 23 -1 22 -10 13z"/>
<path d="M6116 3175 c9 -14 19 -24 21 -21 7 7 -16 46 -28 46 -5 0 -2 -11 7
-25z"/>
<path d="M6085 3171 c-3 -5 -1 -12 4 -15 5 -3 11 1 15 9 6 16 -9 21 -19 6z"/>
<path d="M6088 3113 c7 -3 16 -2 19 1 4 3 -2 6 -13 5 -11 0 -14 -3 -6 -6z"/>
<path d="M5865 2970 c-8 -13 -1 -24 14 -19 6 3 7 10 2 18 -6 10 -10 10 -16 1z"/>
<path d="M5940 2769 c0 -5 5 -7 11 -3 6 3 15 0 20 -7 4 -7 11 -10 16 -6 8 9
-15 27 -34 27 -7 0 -13 -5 -13 -11z"/>
<path d="M1770 1118 c0 -15 5 -30 11 -33 19 -12 21 2 5 32 l-15 28 -1 -27z"/>
<path d="M1733 1048 c4 -12 7 -26 7 -30 0 -5 5 -8 10 -8 6 0 8 11 4 25 -6 24
9 36 19 15 3 -6 4 -5 3 2 -1 7 -13 15 -26 16 -20 3 -22 0 -17 -20z"/>
<path d="M2118 863 c6 -2 18 -2 25 0 6 3 1 5 -13 5 -14 0 -19 -2 -12 -5z"/>
<path d="M2170 850 c0 -5 5 -10 10 -10 6 0 10 5 10 10 0 6 -4 10 -10 10 -5 0
-10 -4 -10 -10z"/>
<path d="M2230 821 c0 -5 5 -13 10 -16 6 -3 10 -2 10 4 0 5 -4 13 -10 16 -5 3
-10 2 -10 -4z"/>
<path d="M1850 808 c0 -7 -13 -24 -30 -38 l-30 -25 22 -44 c12 -24 29 -46 39
-48 19 -5 35 -33 19 -33 -6 0 -10 -5 -10 -11 0 -6 7 -8 16 -5 12 4 15 2 10 -9
-3 -8 0 -15 6 -15 6 0 9 -3 5 -6 -3 -3 3 -15 14 -27 27 -29 26 -51 -2 -36 -15
8 -24 8 -32 0 -8 -8 -7 -11 4 -11 12 0 12 -2 -1 -10 -22 -14 -5 -23 19 -10 22
11 45 5 36 -10 -3 -5 -1 -11 5 -15 6 -4 8 -10 5 -15 -3 -4 2 -10 10 -14 8 -3
15 -12 15 -21 0 -8 3 -15 8 -15 4 0 13 -14 20 -30 8 -17 20 -30 28 -30 8 0 14
-7 14 -16 0 -20 41 -94 52 -94 18 0 -3 170 -25 198 -11 14 -11 14 21 17 12 1
22 -2 22 -7 0 -5 -10 -6 -22 -3 l-23 7 23 -17 c12 -9 27 -13 32 -10 18 11 11
36 -20 75 -32 41 -39 60 -14 39 13 -10 17 -10 25 2 7 12 9 12 9 -1 0 -13 1
-13 10 0 13 21 12 27 -6 34 -9 3 -28 -3 -44 -14 -15 -11 -35 -20 -44 -20 -26
0 -18 -14 16 -30 37 -17 49 -40 20 -37 -11 0 -18 6 -16 12 3 6 -5 11 -16 11
-11 0 -20 -4 -20 -8 0 -13 -38 -28 -54 -22 -26 10 -18 27 9 20 14 -4 25 -2 25
4 0 5 -9 10 -19 10 -12 0 -22 9 -27 23 -3 12 -12 29 -18 37 -19 23 -18 60 2
60 13 0 13 2 -4 14 -13 10 -21 11 -26 4 -9 -17 -15 33 -7 65 5 16 4 27 -3 27
-6 0 -8 10 -4 25 5 18 2 25 -8 25 -17 0 -28 24 -20 45 4 8 1 15 -5 15 -6 0
-11 -5 -11 -12z m-10 -93 c0 -9 -6 -12 -15 -9 -8 4 -15 10 -15 15 0 5 7 9 15
9 8 0 15 -7 15 -15z m24 -34 c3 -5 -1 -11 -9 -15 -9 -3 -15 0 -15 9 0 16 16
20 24 6z m146 -272 c0 -6 7 -9 15 -5 13 4 14 2 5 -15 -6 -11 -15 -17 -19 -14
-12 7 -21 45 -10 45 5 0 9 -5 9 -11z"/>
<path d="M2170 811 c0 -5 5 -13 10 -16 6 -3 10 -2 10 4 0 5 -4 13 -10 16 -5 3
-10 2 -10 -4z"/>
<path d="M2005 770 c-3 -6 2 -13 12 -17 10 -3 22 -8 26 -11 5 -2 4 5 -2 17
-13 23 -26 27 -36 11z"/>
<path d="M2118 718 c-12 -19 -23 -25 -38 -21 -11 3 -20 12 -20 19 0 8 -7 14
-15 14 -23 0 -18 -19 9 -32 31 -14 42 -38 18 -38 -10 0 -23 5 -29 11 -9 9 -10
7 -6 -10 3 -11 10 -21 17 -21 6 0 21 -3 34 -6 17 -5 23 -3 21 7 -3 17 11 52
24 60 5 4 7 15 5 25 -3 16 -5 14 -20 -8z"/>
<path d="M1950 639 c0 -5 5 -7 10 -4 6 3 10 8 10 11 0 2 -4 4 -10 4 -5 0 -10
-5 -10 -11z"/>
<path d="M1820 621 c0 -5 5 -13 10 -16 6 -3 10 -2 10 4 0 5 -4 13 -10 16 -5 3
-10 2 -10 -4z"/>
<path d="M2050 620 c0 -6 7 -10 15 -10 8 0 15 2 15 4 0 2 -7 6 -15 10 -8 3
-15 1 -15 -4z"/>
<path d="M2310 610 c0 -5 7 -10 15 -10 8 0 15 5 15 10 0 6 -7 10 -15 10 -8 0
-15 -4 -15 -10z"/>
<path d="M2030 593 c0 -13 5 -23 10 -23 6 0 10 -5 10 -11 0 -5 -5 -7 -11 -3
-7 4 -10 2 -8 -5 3 -7 9 -12 14 -12 16 0 17 35 1 56 -15 20 -15 20 -16 -2z"/>
<path d="M2095 590 c-3 -5 6 -12 20 -16 35 -9 41 0 10 14 -14 7 -27 8 -30 2z"/>
<path d="M1842 570 c0 -14 2 -19 5 -12 2 6 2 18 0 25 -3 6 -5 1 -5 -13z"/>
<path d="M1955 560 c-3 -5 -1 -10 4 -10 6 0 11 5 11 10 0 6 -2 10 -4 10 -3 0
-8 -4 -11 -10z"/>
<path d="M2210 560 c0 -5 5 -10 11 -10 5 0 7 5 4 10 -3 6 -8 10 -11 10 -2 0
-4 -4 -4 -10z"/>
<path d="M1860 540 c0 -5 7 -10 15 -10 8 0 15 5 15 10 0 6 -7 10 -15 10 -8 0
-15 -4 -15 -10z"/>
<path d="M2187 498 c-6 -18 -10 -37 -9 -41 1 -5 -8 -6 -20 -2 l-23 6 23 -14
c12 -7 20 -16 16 -20 -4 -3 -2 -12 4 -20 7 -8 7 -18 2 -27 -8 -12 -10 -12 -10
3 0 10 -4 16 -8 13 -13 -8 -13 -68 0 -83 6 -7 8 -20 4 -28 -3 -9 0 -15 10 -15
12 0 15 6 10 25 -4 14 -3 25 2 25 4 0 9 29 9 65 1 35 5 70 9 76 11 19 13 69 2
69 -5 0 -14 -15 -21 -32z"/>
<path d="M1965 510 c3 -5 8 -10 11 -10 2 0 4 5 4 10 0 6 -5 10 -11 10 -5 0 -7
-4 -4 -10z"/>
<path d="M2130 489 c0 -5 5 -7 10 -4 6 3 10 8 10 11 0 2 -4 4 -10 4 -5 0 -10
-5 -10 -11z"/>
<path d="M2224 343 c2 -16 4 -33 5 -40 0 -7 11 -17 22 -24 13 -7 19 -7 15 -1
-3 6 -2 13 4 17 17 11 11 23 -9 18 -16 -4 -18 0 -15 26 3 22 -1 31 -11 31 -9
0 -13 -9 -11 -27z"/>
<path d="M2156 207 c3 -10 9 -15 12 -12 3 3 0 11 -7 18 -10 9 -11 8 -5 -6z"/>
<path d="M2276 212 c-3 -5 -8 -22 -11 -39 -3 -23 -1 -33 11 -37 22 -8 28 -1
19 21 -4 10 -7 28 -6 41 2 22 -4 29 -13 14z"/>
<path d="M2080 129 c0 -5 5 -7 10 -4 6 3 10 8 10 11 0 2 -4 4 -10 4 -5 0 -10
-5 -10 -11z"/>
<path d="M4182 618 c2 -25 8 -33 23 -33 16 0 20 7 20 30 0 24 -5 31 -23 33
-21 3 -23 0 -20 -30z"/>
<path d="M4334 636 c-10 -26 0 -51 21 -51 16 0 20 7 20 30 0 33 -30 49 -41 21z"/>
<path d="M4645 631 c-8 -26 4 -51 26 -51 19 0 22 5 22 35 0 30 -3 35 -22 35
-11 0 -22 -8 -26 -19z"/>
<path d="M5222 638 c7 -19 38 -22 38 -4 0 10 -9 16 -21 16 -12 0 -19 -5 -17
-12z"/>
<path d="M5580 614 c0 -8 5 -12 10 -9 6 4 8 11 5 16 -9 14 -15 11 -15 -7z"/>
<path d="M5673 638 c2 -7 10 -13 17 -13 7 0 15 6 18 13 2 7 -5 12 -18 12 -13
0 -20 -5 -17 -12z"/>
<path d="M5999 645 c-6 -30 -1 -60 10 -60 19 0 35 29 28 49 -6 14 -36 23 -38
11z"/>
<path d="M6140 615 c0 -29 3 -36 18 -33 11 2 17 13 17 33 0 20 -6 31 -17 33
-15 3 -18 -4 -18 -33z"/>
<path d="M6350 635 c0 -10 7 -15 18 -13 21 4 19 22 -2 26 -10 2 -16 -3 -16
-13z"/>
<path d="M4825 490 c-3 -5 -1 -10 4 -10 6 0 11 5 11 10 0 6 -2 10 -4 10 -3 0
-8 -4 -11 -10z"/>
<path d="M5318 508 c-3 -7 -2 -23 3 -35 12 -33 51 -20 47 16 -3 28 -41 43 -50
19z"/>
<path d="M6068 487 c3 -29 7 -34 23 -30 28 8 22 57 -7 61 -17 3 -20 -1 -16
-31z"/>
<path d="M6269 508 c-4 -41 16 -65 39 -46 20 17 11 52 -15 56 -14 2 -23 -2
-24 -10z"/>
<path d="M2305 1000 c-3 -5 -1 -10 4 -10 6 0 11 5 11 10 0 6 -2 10 -4 10 -3 0
-8 -4 -11 -10z"/>
<path d="M2520 990 c0 -5 5 -10 11 -10 5 0 7 5 4 10 -3 6 -8 10 -11 10 -2 0
-4 -4 -4 -10z"/>
<path d="M2410 960 c0 -5 5 -10 10 -10 6 0 10 5 10 10 0 6 -4 10 -10 10 -5 0
-10 -4 -10 -10z"/>
<path d="M2700 860 c0 -11 4 -20 9 -20 5 0 7 9 4 20 -3 11 -7 20 -9 20 -2 0
-4 -9 -4 -20z"/>
<path d="M3107 363 c-11 -10 -8 -20 7 -26 10 -4 12 0 9 14 -6 21 -7 22 -16 12z"/>
<path d="M3090 270 c0 -5 -6 -10 -14 -10 -16 0 -28 -24 -20 -43 3 -8 -6 -18
-20 -25 -18 -8 -23 -16 -19 -31 3 -13 1 -21 -7 -21 -6 0 -10 -6 -7 -12 2 -7
-2 -30 -9 -52 -23 -63 -19 -76 20 -76 19 0 37 6 39 13 4 9 8 8 17 -3 10 -12
11 -11 7 7 -4 18 1 25 29 35 23 8 31 15 24 22 -15 15 -12 57 6 77 10 11 12 19
5 24 -6 3 -11 -1 -11 -9 0 -9 -4 -16 -10 -16 -18 0 -11 27 10 41 17 11 19 20
14 47 -5 22 -11 31 -20 28 -8 -3 -14 -1 -14 4 0 6 -4 10 -10 10 -5 0 -10 -4
-10 -10z m16 -32 c4 -7 3 -8 -4 -4 -7 4 -12 2 -12 -3 0 -6 9 -11 20 -11 11 0
20 -4 20 -9 0 -11 -39 -9 -58 3 -9 5 -9 10 1 21 15 18 24 18 33 3z"/>
<path d="M2469 58 l5 -43 6 35 c6 36 4 50 -8 50 -4 0 -5 -19 -3 -42z"/>
<path d="M2395 23 c3 -8 5 -17 5 -19 0 -14 16 -1 17 14 1 10 -5 19 -13 19 -9
0 -13 -6 -9 -14z"/>
<path d="M3100 19 c0 -11 5 -19 10 -19 6 0 10 5 10 10 0 6 26 10 57 10 74 0
61 12 -17 15 -53 2 -60 0 -60 -16z"/>
</g>
</svg>
